<svg width="553" height="433" viewBox="0 0 553 433" fill="none" xmlns="http://www.w3.org/2000/svg">
<g clip-path="url(#clip0_6_820)">
<path d="M550.795 322.582C550.188 322.582 549.696 323.179 549.696 323.916C549.696 324.653 550.188 325.251 550.795 325.251C551.403 325.251 551.895 324.653 551.895 323.916C551.895 323.179 551.403 322.582 550.795 322.582Z" fill="#8493AD"/>
<path d="M550.795 295.895C550.188 295.895 549.696 296.492 549.696 297.229C549.696 297.966 550.188 298.563 550.795 298.563C551.403 298.563 551.895 297.966 551.895 297.229C551.895 296.492 551.403 295.895 550.795 295.895Z" fill="#8493AD"/>
<path d="M550.795 269.207C550.188 269.207 549.696 269.805 549.696 270.542C549.696 271.279 550.188 271.876 550.795 271.876C551.403 271.876 551.895 271.279 551.895 270.542C551.895 269.805 551.403 269.207 550.795 269.207Z" fill="#8493AD"/>
<path d="M550.795 242.52C550.188 242.52 549.696 243.118 549.696 243.854C549.696 244.591 550.188 245.189 550.795 245.189C551.403 245.189 551.895 244.591 551.895 243.854C551.895 243.118 551.403 242.52 550.795 242.52Z" fill="#8493AD"/>
<path d="M550.801 214.498C549.587 214.498 548.602 215.693 548.602 217.167C548.602 218.641 549.587 219.836 550.801 219.836C552.016 219.836 553 218.641 553 217.167C553 215.693 552.016 214.498 550.801 214.498Z" fill="#8493AD"/>
<path d="M550.801 187.811C549.587 187.811 548.602 189.006 548.602 190.48C548.602 191.954 549.587 193.149 550.801 193.149C552.016 193.149 553 191.954 553 190.48C553 189.006 552.016 187.811 550.801 187.811Z" fill="#8493AD"/>
<path d="M550.801 161.124C549.587 161.124 548.602 162.319 548.602 163.793C548.602 165.266 549.587 166.461 550.801 166.461C552.016 166.461 553 165.266 553 163.793C553 162.319 552.016 161.124 550.801 161.124Z" fill="#8493AD"/>
<path d="M550.795 135.771C550.188 135.771 549.696 136.368 549.696 137.105C549.696 137.842 550.188 138.44 550.795 138.44C551.403 138.44 551.895 137.842 551.895 137.105C551.895 136.368 551.403 135.771 550.795 135.771Z" fill="#8493AD"/>
<path d="M550.795 109.084C550.188 109.084 549.696 109.681 549.696 110.418C549.696 111.155 550.188 111.752 550.795 111.752C551.403 111.752 551.895 111.155 551.895 110.418C551.895 109.681 551.403 109.084 550.795 109.084Z" fill="#8493AD"/>
<path d="M550.795 82.3963C550.188 82.3963 549.696 82.9937 549.696 83.7307C549.696 84.4676 550.188 85.065 550.795 85.065C551.403 85.065 551.895 84.4676 551.895 83.7307C551.895 82.9937 551.403 82.3963 550.795 82.3963Z" fill="#8493AD"/>
<path d="M550.801 54.3746C549.587 54.3746 548.602 55.5694 548.602 57.0433C548.602 58.5172 549.587 59.7121 550.801 59.7121C552.016 59.7121 553 58.5172 553 57.0433C553 55.5694 552.016 54.3746 550.801 54.3746Z" fill="#8493AD"/>
<path d="M550.795 29.0217C550.188 29.0217 549.696 29.6191 549.696 30.356C549.696 31.093 550.188 31.6904 550.795 31.6904C551.403 31.6904 551.895 31.093 551.895 30.356C551.895 29.6191 551.403 29.0217 550.795 29.0217Z" fill="#8493AD"/>
<path d="M550.795 2.33435C550.188 2.33435 549.696 2.93177 549.696 3.66872C549.696 4.40567 550.188 5.00308 550.795 5.00308C551.403 5.00308 551.895 4.40567 551.895 3.66872C551.895 2.93177 551.403 2.33435 550.795 2.33435Z" fill="#8493AD"/>
<path d="M528.808 375.957C528.2 375.957 527.708 376.554 527.708 377.291C527.708 378.028 528.2 378.625 528.808 378.625C529.415 378.625 529.907 378.028 529.907 377.291C529.907 376.554 529.415 375.957 528.808 375.957Z" fill="#8493AD"/>
<path d="M528.813 347.935C527.599 347.935 526.615 349.13 526.615 350.604C526.615 352.078 527.599 353.272 528.813 353.272C530.028 353.272 531.012 352.078 531.012 350.604C531.012 349.13 530.028 347.935 528.813 347.935Z" fill="#8493AD"/>
<path d="M528.808 322.582C528.2 322.582 527.708 323.179 527.708 323.916C527.708 324.653 528.2 325.251 528.808 325.251C529.415 325.251 529.907 324.653 529.907 323.916C529.907 323.179 529.415 322.582 528.808 322.582Z" fill="#8493AD"/>
<path d="M528.808 295.895C528.2 295.895 527.708 296.492 527.708 297.229C527.708 297.966 528.2 298.563 528.808 298.563C529.415 298.563 529.907 297.966 529.907 297.229C529.907 296.492 529.415 295.895 528.808 295.895Z" fill="#8493AD"/>
<path d="M528.808 269.207C528.2 269.207 527.708 269.805 527.708 270.542C527.708 271.279 528.2 271.876 528.808 271.876C529.415 271.876 529.907 271.279 529.907 270.542C529.907 269.805 529.415 269.207 528.808 269.207Z" fill="#8493AD"/>
<path d="M528.808 242.52C528.2 242.52 527.708 243.118 527.708 243.854C527.708 244.591 528.2 245.189 528.808 245.189C529.415 245.189 529.907 244.591 529.907 243.854C529.907 243.118 529.415 242.52 528.808 242.52Z" fill="#8493AD"/>
<path d="M528.808 215.833C528.2 215.833 527.708 216.43 527.708 217.167C527.708 217.904 528.2 218.502 528.808 218.502C529.415 218.502 529.907 217.904 529.907 217.167C529.907 216.43 529.415 215.833 528.808 215.833Z" fill="#8493AD"/>
<path d="M528.808 189.146C528.2 189.146 527.708 189.743 527.708 190.48C527.708 191.217 528.2 191.814 528.808 191.814C529.415 191.814 529.907 191.217 529.907 190.48C529.907 189.743 529.415 189.146 528.808 189.146Z" fill="#8493AD"/>
<path d="M528.808 162.458C528.2 162.458 527.708 163.056 527.708 163.793C527.708 164.53 528.2 165.127 528.808 165.127C529.415 165.127 529.907 164.53 529.907 163.793C529.907 163.056 529.415 162.458 528.808 162.458Z" fill="#8493AD"/>
<path d="M528.813 134.437C527.599 134.437 526.615 135.631 526.615 137.105C526.615 138.579 527.599 139.774 528.813 139.774C530.028 139.774 531.012 138.579 531.012 137.105C531.012 135.631 530.028 134.437 528.813 134.437Z" fill="#8493AD"/>
<path d="M528.808 109.084C528.2 109.084 527.708 109.681 527.708 110.418C527.708 111.155 528.2 111.752 528.808 111.752C529.415 111.752 529.907 111.155 529.907 110.418C529.907 109.681 529.415 109.084 528.808 109.084Z" fill="#8493AD"/>
<path d="M528.808 82.3963C528.2 82.3963 527.708 82.9937 527.708 83.7307C527.708 84.4676 528.2 85.065 528.808 85.065C529.415 85.065 529.907 84.4676 529.907 83.7307C529.907 82.9937 529.415 82.3963 528.808 82.3963Z" fill="#8493AD"/>
<path d="M528.808 55.709C528.2 55.709 527.708 56.3064 527.708 57.0434C527.708 57.7803 528.2 58.3777 528.808 58.3777C529.415 58.3777 529.907 57.7803 529.907 57.0434C529.907 56.3064 529.415 55.709 528.808 55.709Z" fill="#8493AD"/>
<path d="M528.808 29.0217C528.2 29.0217 527.708 29.6191 527.708 30.356C527.708 31.093 528.2 31.6904 528.808 31.6904C529.415 31.6904 529.907 31.093 529.907 30.356C529.907 29.6191 529.415 29.0217 528.808 29.0217Z" fill="#8493AD"/>
<path d="M528.813 1C527.599 1 526.615 2.19483 526.615 3.66873C526.615 5.14263 527.599 6.33746 528.813 6.33746C530.028 6.33746 531.012 5.14263 531.012 3.66873C531.012 2.19483 530.028 1 528.813 1Z" fill="#8493AD"/>
<path d="M506.82 402.644C506.213 402.644 505.72 403.241 505.72 403.978C505.72 404.715 506.213 405.313 506.82 405.313C507.427 405.313 507.919 404.715 507.919 403.978C507.919 403.241 507.427 402.644 506.82 402.644Z" fill="#8493AD"/>
<path d="M506.82 375.957C506.213 375.957 505.72 376.554 505.72 377.291C505.72 378.028 506.213 378.625 506.82 378.625C507.427 378.625 507.919 378.028 507.919 377.291C507.919 376.554 507.427 375.957 506.82 375.957Z" fill="#8493AD"/>
<path d="M506.82 349.269C506.213 349.269 505.72 349.867 505.72 350.604C505.72 351.341 506.213 351.938 506.82 351.938C507.427 351.938 507.919 351.341 507.919 350.604C507.919 349.867 507.427 349.269 506.82 349.269Z" fill="#8493AD"/>
<path d="M506.82 322.582C506.213 322.582 505.72 323.179 505.72 323.916C505.72 324.653 506.213 325.251 506.82 325.251C507.427 325.251 507.919 324.653 507.919 323.916C507.919 323.179 507.427 322.582 506.82 322.582Z" fill="#8493AD"/>
<path d="M506.825 294.56C505.611 294.56 504.627 295.755 504.627 297.229C504.627 298.703 505.611 299.898 506.825 299.898C508.04 299.898 509.024 298.703 509.024 297.229C509.024 295.755 508.04 294.56 506.825 294.56Z" fill="#8493AD"/>
<path d="M506.825 267.873C505.611 267.873 504.627 269.068 504.627 270.542C504.627 272.016 505.611 273.211 506.825 273.211C508.04 273.211 509.024 272.016 509.024 270.542C509.024 269.068 508.04 267.873 506.825 267.873Z" fill="#8493AD"/>
<path d="M506.82 242.52C506.213 242.52 505.72 243.118 505.72 243.854C505.72 244.591 506.213 245.189 506.82 245.189C507.427 245.189 507.919 244.591 507.919 243.854C507.919 243.118 507.427 242.52 506.82 242.52Z" fill="#8493AD"/>
<path d="M506.82 215.833C506.213 215.833 505.72 216.43 505.72 217.167C505.72 217.904 506.213 218.502 506.82 218.502C507.427 218.502 507.919 217.904 507.919 217.167C507.919 216.43 507.427 215.833 506.82 215.833Z" fill="#8493AD"/>
<path d="M506.825 187.811C505.611 187.811 504.627 189.006 504.627 190.48C504.627 191.954 505.611 193.149 506.825 193.149C508.04 193.149 509.024 191.954 509.024 190.48C509.024 189.006 508.04 187.811 506.825 187.811Z" fill="#8493AD"/>
<path d="M506.82 162.458C506.213 162.458 505.72 163.056 505.72 163.793C505.72 164.53 506.213 165.127 506.82 165.127C507.427 165.127 507.919 164.53 507.919 163.793C507.919 163.056 507.427 162.458 506.82 162.458Z" fill="#8493AD"/>
<path d="M506.825 134.437C505.611 134.437 504.627 135.631 504.627 137.105C504.627 138.579 505.611 139.774 506.825 139.774C508.04 139.774 509.024 138.579 509.024 137.105C509.024 135.631 508.04 134.437 506.825 134.437Z" fill="#8493AD"/>
<path d="M506.82 109.084C506.213 109.084 505.72 109.681 505.72 110.418C505.72 111.155 506.213 111.752 506.82 111.752C507.427 111.752 507.919 111.155 507.919 110.418C507.919 109.681 507.427 109.084 506.82 109.084Z" fill="#8493AD"/>
<path d="M506.82 82.3963C506.213 82.3963 505.72 82.9937 505.72 83.7307C505.72 84.4676 506.213 85.065 506.82 85.065C507.427 85.065 507.919 84.4676 507.919 83.7307C507.919 82.9937 507.427 82.3963 506.82 82.3963Z" fill="#8493AD"/>
<path d="M506.82 55.709C506.213 55.709 505.72 56.3064 505.72 57.0434C505.72 57.7803 506.213 58.3777 506.82 58.3777C507.427 58.3777 507.919 57.7803 507.919 57.0434C507.919 56.3064 507.427 55.709 506.82 55.709Z" fill="#8493AD"/>
<path d="M506.82 29.0217C506.213 29.0217 505.72 29.6191 505.72 30.356C505.72 31.093 506.213 31.6904 506.82 31.6904C507.427 31.6904 507.919 31.093 507.919 30.356C507.919 29.6191 507.427 29.0217 506.82 29.0217Z" fill="#8493AD"/>
<path d="M506.82 2.33435C506.213 2.33435 505.72 2.93177 505.72 3.66872C505.72 4.40567 506.213 5.00308 506.82 5.00308C507.427 5.00308 507.919 4.40567 507.919 3.66872C507.919 2.93177 507.427 2.33435 506.82 2.33435Z" fill="#8493AD"/>
<path d="M484.832 429.331C484.225 429.331 483.733 429.929 483.733 430.666C483.733 431.403 484.225 432 484.832 432C485.439 432 485.931 431.403 485.931 430.666C485.931 429.929 485.439 429.331 484.832 429.331Z" fill="#8493AD"/>
<path d="M484.832 402.644C484.225 402.644 483.733 403.241 483.733 403.978C483.733 404.715 484.225 405.313 484.832 405.313C485.439 405.313 485.931 404.715 485.931 403.978C485.931 403.241 485.439 402.644 484.832 402.644Z" fill="#8493AD"/>
<path d="M484.832 375.957C484.225 375.957 483.733 376.554 483.733 377.291C483.733 378.028 484.225 378.625 484.832 378.625C485.439 378.625 485.931 378.028 485.931 377.291C485.931 376.554 485.439 375.957 484.832 375.957Z" fill="#8493AD"/>
<path d="M484.838 347.935C483.623 347.935 482.639 349.13 482.639 350.604C482.639 352.078 483.623 353.272 484.838 353.272C486.052 353.272 487.036 352.078 487.036 350.604C487.036 349.13 486.052 347.935 484.838 347.935Z" fill="#8493AD"/>
<path d="M484.832 322.582C484.225 322.582 483.733 323.179 483.733 323.916C483.733 324.653 484.225 325.251 484.832 325.251C485.439 325.251 485.931 324.653 485.931 323.916C485.931 323.179 485.439 322.582 484.832 322.582Z" fill="#8493AD"/>
<path d="M484.838 294.56C483.623 294.56 482.639 295.755 482.639 297.229C482.639 298.703 483.623 299.898 484.838 299.898C486.052 299.898 487.036 298.703 487.036 297.229C487.036 295.755 486.052 294.56 484.838 294.56Z" fill="#8493AD"/>
<path d="M484.832 269.207C484.225 269.207 483.733 269.805 483.733 270.542C483.733 271.279 484.225 271.876 484.832 271.876C485.439 271.876 485.931 271.279 485.931 270.542C485.931 269.805 485.439 269.207 484.832 269.207Z" fill="#8493AD"/>
<path d="M484.832 242.52C484.225 242.52 483.733 243.118 483.733 243.854C483.733 244.591 484.225 245.189 484.832 245.189C485.439 245.189 485.931 244.591 485.931 243.854C485.931 243.118 485.439 242.52 484.832 242.52Z" fill="#8493AD"/>
<path d="M484.838 214.498C483.623 214.498 482.639 215.693 482.639 217.167C482.639 218.641 483.623 219.836 484.838 219.836C486.052 219.836 487.036 218.641 487.036 217.167C487.036 215.693 486.052 214.498 484.838 214.498Z" fill="#8493AD"/>
<path d="M484.832 189.146C484.225 189.146 483.733 189.743 483.733 190.48C483.733 191.217 484.225 191.814 484.832 191.814C485.439 191.814 485.931 191.217 485.931 190.48C485.931 189.743 485.439 189.146 484.832 189.146Z" fill="#8493AD"/>
<path d="M484.832 162.458C484.225 162.458 483.733 163.056 483.733 163.793C483.733 164.53 484.225 165.127 484.832 165.127C485.439 165.127 485.931 164.53 485.931 163.793C485.931 163.056 485.439 162.458 484.832 162.458Z" fill="#8493AD"/>
<path d="M484.832 135.771C484.225 135.771 483.733 136.368 483.733 137.105C483.733 137.842 484.225 138.44 484.832 138.44C485.439 138.44 485.931 137.842 485.931 137.105C485.931 136.368 485.439 135.771 484.832 135.771Z" fill="#8493AD"/>
<path d="M484.832 109.084C484.225 109.084 483.733 109.681 483.733 110.418C483.733 111.155 484.225 111.752 484.832 111.752C485.439 111.752 485.931 111.155 485.931 110.418C485.931 109.681 485.439 109.084 484.832 109.084Z" fill="#8493AD"/>
<path d="M484.832 82.3963C484.225 82.3963 483.733 82.9937 483.733 83.7307C483.733 84.4676 484.225 85.065 484.832 85.065C485.439 85.065 485.931 84.4676 485.931 83.7307C485.931 82.9937 485.439 82.3963 484.832 82.3963Z" fill="#8493AD"/>
<path d="M484.838 54.3746C483.623 54.3746 482.639 55.5694 482.639 57.0433C482.639 58.5172 483.623 59.7121 484.838 59.7121C486.052 59.7121 487.036 58.5172 487.036 57.0433C487.036 55.5694 486.052 54.3746 484.838 54.3746Z" fill="#8493AD"/>
<path d="M484.832 29.0217C484.225 29.0217 483.733 29.6191 483.733 30.356C483.733 31.093 484.225 31.6904 484.832 31.6904C485.439 31.6904 485.931 31.093 485.931 30.356C485.931 29.6191 485.439 29.0217 484.832 29.0217Z" fill="#8493AD"/>
<path d="M484.832 2.33435C484.225 2.33435 483.733 2.93177 483.733 3.66872C483.733 4.40567 484.225 5.00308 484.832 5.00308C485.439 5.00308 485.931 4.40567 485.931 3.66872C485.931 2.93177 485.439 2.33435 484.832 2.33435Z" fill="#8493AD"/>
<path d="M462.844 429.331C462.237 429.331 461.745 429.929 461.745 430.666C461.745 431.403 462.237 432 462.844 432C463.451 432 463.943 431.403 463.943 430.666C463.943 429.929 463.451 429.331 462.844 429.331Z" fill="#8493AD"/>
<path d="M462.844 402.644C462.237 402.644 461.745 403.241 461.745 403.978C461.745 404.715 462.237 405.313 462.844 405.313C463.451 405.313 463.943 404.715 463.943 403.978C463.943 403.241 463.451 402.644 462.844 402.644Z" fill="#8493AD"/>
<path d="M462.844 375.957C462.237 375.957 461.745 376.554 461.745 377.291C461.745 378.028 462.237 378.625 462.844 378.625C463.451 378.625 463.943 378.028 463.943 377.291C463.943 376.554 463.451 375.957 462.844 375.957Z" fill="#8493AD"/>
<path d="M462.844 349.269C462.237 349.269 461.745 349.867 461.745 350.604C461.745 351.341 462.237 351.938 462.844 351.938C463.451 351.938 463.943 351.341 463.943 350.604C463.943 349.867 463.451 349.269 462.844 349.269Z" fill="#8493AD"/>
<path d="M462.85 321.248C461.635 321.248 460.651 322.443 460.651 323.916C460.651 325.39 461.635 326.585 462.85 326.585C464.064 326.585 465.049 325.39 465.049 323.916C465.049 322.443 464.064 321.248 462.85 321.248Z" fill="#8493AD"/>
<path d="M462.85 294.56C461.635 294.56 460.651 295.755 460.651 297.229C460.651 298.703 461.635 299.898 462.85 299.898C464.064 299.898 465.049 298.703 465.049 297.229C465.049 295.755 464.064 294.56 462.85 294.56Z" fill="#8493AD"/>
<path d="M462.844 269.207C462.237 269.207 461.745 269.805 461.745 270.542C461.745 271.279 462.237 271.876 462.844 271.876C463.451 271.876 463.943 271.279 463.943 270.542C463.943 269.805 463.451 269.207 462.844 269.207Z" fill="#8493AD"/>
<path d="M462.844 242.52C462.237 242.52 461.745 243.118 461.745 243.854C461.745 244.591 462.237 245.189 462.844 245.189C463.451 245.189 463.943 244.591 463.943 243.854C463.943 243.118 463.451 242.52 462.844 242.52Z" fill="#8493AD"/>
<path d="M462.85 214.498C461.635 214.498 460.651 215.693 460.651 217.167C460.651 218.641 461.635 219.836 462.85 219.836C464.064 219.836 465.049 218.641 465.049 217.167C465.049 215.693 464.064 214.498 462.85 214.498Z" fill="#8493AD"/>
<path d="M462.844 189.146C462.237 189.146 461.745 189.743 461.745 190.48C461.745 191.217 462.237 191.814 462.844 191.814C463.451 191.814 463.943 191.217 463.943 190.48C463.943 189.743 463.451 189.146 462.844 189.146Z" fill="#8493AD"/>
<path d="M462.844 162.458C462.237 162.458 461.745 163.056 461.745 163.793C461.745 164.53 462.237 165.127 462.844 165.127C463.451 165.127 463.943 164.53 463.943 163.793C463.943 163.056 463.451 162.458 462.844 162.458Z" fill="#8493AD"/>
<path d="M462.844 135.771C462.237 135.771 461.745 136.368 461.745 137.105C461.745 137.842 462.237 138.44 462.844 138.44C463.451 138.44 463.943 137.842 463.943 137.105C463.943 136.368 463.451 135.771 462.844 135.771Z" fill="#8493AD"/>
<path d="M462.844 109.084C462.237 109.084 461.745 109.681 461.745 110.418C461.745 111.155 462.237 111.752 462.844 111.752C463.451 111.752 463.943 111.155 463.943 110.418C463.943 109.681 463.451 109.084 462.844 109.084Z" fill="#8493AD"/>
<path d="M462.844 82.3963C462.237 82.3963 461.745 82.9937 461.745 83.7307C461.745 84.4676 462.237 85.065 462.844 85.065C463.451 85.065 463.943 84.4676 463.943 83.7307C463.943 82.9937 463.451 82.3963 462.844 82.3963Z" fill="#8493AD"/>
<path d="M462.85 54.3746C461.635 54.3746 460.651 55.5694 460.651 57.0433C460.651 58.5172 461.635 59.7121 462.85 59.7121C464.064 59.7121 465.049 58.5172 465.049 57.0433C465.049 55.5694 464.064 54.3746 462.85 54.3746Z" fill="#8493AD"/>
<path d="M462.844 29.0217C462.237 29.0217 461.745 29.6191 461.745 30.356C461.745 31.093 462.237 31.6904 462.844 31.6904C463.451 31.6904 463.943 31.093 463.943 30.356C463.943 29.6191 463.451 29.0217 462.844 29.0217Z" fill="#8493AD"/>
<path d="M462.844 2.33435C462.237 2.33435 461.745 2.93177 461.745 3.66872C461.745 4.40567 462.237 5.00308 462.844 5.00308C463.451 5.00308 463.943 4.40567 463.943 3.66872C463.943 2.93177 463.451 2.33435 462.844 2.33435Z" fill="#8493AD"/>
<path d="M440.856 375.957C440.249 375.957 439.757 376.554 439.757 377.291C439.757 378.028 440.249 378.625 440.856 378.625C441.463 378.625 441.956 378.028 441.956 377.291C441.956 376.554 441.463 375.957 440.856 375.957Z" fill="#8493AD"/>
<path d="M440.856 349.269C440.249 349.269 439.757 349.867 439.757 350.604C439.757 351.341 440.249 351.938 440.856 351.938C441.463 351.938 441.956 351.341 441.956 350.604C441.956 349.867 441.463 349.269 440.856 349.269Z" fill="#8493AD"/>
<path d="M440.856 322.582C440.249 322.582 439.757 323.179 439.757 323.916C439.757 324.653 440.249 325.251 440.856 325.251C441.463 325.251 441.956 324.653 441.956 323.916C441.956 323.179 441.463 322.582 440.856 322.582Z" fill="#8493AD"/>
<path d="M440.856 295.895C440.249 295.895 439.757 296.492 439.757 297.229C439.757 297.966 440.249 298.563 440.856 298.563C441.463 298.563 441.956 297.966 441.956 297.229C441.956 296.492 441.463 295.895 440.856 295.895Z" fill="#8493AD"/>
<path d="M440.856 269.207C440.249 269.207 439.757 269.805 439.757 270.542C439.757 271.279 440.249 271.876 440.856 271.876C441.463 271.876 441.956 271.279 441.956 270.542C441.956 269.805 441.463 269.207 440.856 269.207Z" fill="#8493AD"/>
<path d="M440.856 242.52C440.249 242.52 439.757 243.118 439.757 243.854C439.757 244.591 440.249 245.189 440.856 245.189C441.463 245.189 441.956 244.591 441.956 243.854C441.956 243.118 441.463 242.52 440.856 242.52Z" fill="#8493AD"/>
<path d="M440.856 215.833C440.249 215.833 439.757 216.43 439.757 217.167C439.757 217.904 440.249 218.502 440.856 218.502C441.463 218.502 441.956 217.904 441.956 217.167C441.956 216.43 441.463 215.833 440.856 215.833Z" fill="#8493AD"/>
<path d="M440.856 189.146C440.249 189.146 439.757 189.743 439.757 190.48C439.757 191.217 440.249 191.814 440.856 191.814C441.463 191.814 441.956 191.217 441.956 190.48C441.956 189.743 441.463 189.146 440.856 189.146Z" fill="#8493AD"/>
<path d="M440.856 162.458C440.249 162.458 439.757 163.056 439.757 163.793C439.757 164.53 440.249 165.127 440.856 165.127C441.463 165.127 441.956 164.53 441.956 163.793C441.956 163.056 441.463 162.458 440.856 162.458Z" fill="#8493AD"/>
<path d="M440.862 134.437C439.648 134.437 438.663 135.631 438.663 137.105C438.663 138.579 439.648 139.774 440.862 139.774C442.076 139.774 443.061 138.579 443.061 137.105C443.061 135.631 442.076 134.437 440.862 134.437Z" fill="#8493AD"/>
<path d="M440.856 109.084C440.249 109.084 439.757 109.681 439.757 110.418C439.757 111.155 440.249 111.752 440.856 111.752C441.463 111.752 441.956 111.155 441.956 110.418C441.956 109.681 441.463 109.084 440.856 109.084Z" fill="#8493AD"/>
<path d="M440.856 82.3963C440.249 82.3963 439.757 82.9937 439.757 83.7307C439.757 84.4676 440.249 85.065 440.856 85.065C441.463 85.065 441.956 84.4676 441.956 83.7307C441.956 82.9937 441.463 82.3963 440.856 82.3963Z" fill="#8493AD"/>
<path d="M440.856 55.709C440.249 55.709 439.757 56.3064 439.757 57.0434C439.757 57.7803 440.249 58.3777 440.856 58.3777C441.463 58.3777 441.956 57.7803 441.956 57.0434C441.956 56.3064 441.463 55.709 440.856 55.709Z" fill="#8493AD"/>
<path d="M440.856 29.0217C440.249 29.0217 439.757 29.6191 439.757 30.356C439.757 31.093 440.249 31.6904 440.856 31.6904C441.463 31.6904 441.956 31.093 441.956 30.356C441.956 29.6191 441.463 29.0217 440.856 29.0217Z" fill="#8493AD"/>
<path d="M440.856 2.33435C440.249 2.33435 439.757 2.93177 439.757 3.66872C439.757 4.40567 440.249 5.00308 440.856 5.00308C441.463 5.00308 441.956 4.40567 441.956 3.66872C441.956 2.93177 441.463 2.33435 440.856 2.33435Z" fill="#8493AD"/>
<path d="M418.868 375.957C418.261 375.957 417.769 376.554 417.769 377.291C417.769 378.028 418.261 378.625 418.868 378.625C419.476 378.625 419.968 378.028 419.968 377.291C419.968 376.554 419.476 375.957 418.868 375.957Z" fill="#8493AD"/>
<path d="M418.868 349.269C418.261 349.269 417.769 349.867 417.769 350.604C417.769 351.341 418.261 351.938 418.868 351.938C419.476 351.938 419.968 351.341 419.968 350.604C419.968 349.867 419.476 349.269 418.868 349.269Z" fill="#8493AD"/>
<path d="M418.868 322.582C418.261 322.582 417.769 323.179 417.769 323.916C417.769 324.653 418.261 325.251 418.868 325.251C419.476 325.251 419.968 324.653 419.968 323.916C419.968 323.179 419.476 322.582 418.868 322.582Z" fill="#8493AD"/>
<path d="M418.868 295.895C418.261 295.895 417.769 296.492 417.769 297.229C417.769 297.966 418.261 298.563 418.868 298.563C419.476 298.563 419.968 297.966 419.968 297.229C419.968 296.492 419.476 295.895 418.868 295.895Z" fill="#8493AD"/>
<path d="M418.868 269.207C418.261 269.207 417.769 269.805 417.769 270.542C417.769 271.279 418.261 271.876 418.868 271.876C419.476 271.876 419.968 271.279 419.968 270.542C419.968 269.805 419.476 269.207 418.868 269.207Z" fill="#8493AD"/>
<path d="M418.874 241.186C417.66 241.186 416.675 242.381 416.675 243.854C416.675 245.328 417.66 246.523 418.874 246.523C420.089 246.523 421.073 245.328 421.073 243.854C421.073 242.381 420.089 241.186 418.874 241.186Z" fill="#8493AD"/>
<path d="M418.874 214.498C417.66 214.498 416.675 215.693 416.675 217.167C416.675 218.641 417.66 219.836 418.874 219.836C420.089 219.836 421.073 218.641 421.073 217.167C421.073 215.693 420.089 214.498 418.874 214.498Z" fill="#8493AD"/>
<path d="M418.874 187.811C417.66 187.811 416.675 189.006 416.675 190.48C416.675 191.954 417.66 193.149 418.874 193.149C420.089 193.149 421.073 191.954 421.073 190.48C421.073 189.006 420.089 187.811 418.874 187.811Z" fill="#8493AD"/>
<path d="M418.868 162.458C418.261 162.458 417.769 163.056 417.769 163.793C417.769 164.53 418.261 165.127 418.868 165.127C419.476 165.127 419.968 164.53 419.968 163.793C419.968 163.056 419.476 162.458 418.868 162.458Z" fill="#8493AD"/>
<path d="M418.868 135.771C418.261 135.771 417.769 136.368 417.769 137.105C417.769 137.842 418.261 138.44 418.868 138.44C419.476 138.44 419.968 137.842 419.968 137.105C419.968 136.368 419.476 135.771 418.868 135.771Z" fill="#8493AD"/>
<path d="M418.868 109.084C418.261 109.084 417.769 109.681 417.769 110.418C417.769 111.155 418.261 111.752 418.868 111.752C419.476 111.752 419.968 111.155 419.968 110.418C419.968 109.681 419.476 109.084 418.868 109.084Z" fill="#8493AD"/>
<path d="M418.868 82.3963C418.261 82.3963 417.769 82.9937 417.769 83.7307C417.769 84.4676 418.261 85.065 418.868 85.065C419.476 85.065 419.968 84.4676 419.968 83.7307C419.968 82.9937 419.476 82.3963 418.868 82.3963Z" fill="#8493AD"/>
<path d="M418.874 54.3746C417.66 54.3746 416.675 55.5694 416.675 57.0433C416.675 58.5172 417.66 59.7121 418.874 59.7121C420.089 59.7121 421.073 58.5172 421.073 57.0433C421.073 55.5694 420.089 54.3746 418.874 54.3746Z" fill="#8493AD"/>
<path d="M418.874 27.6873C417.66 27.6873 416.675 28.8821 416.675 30.356C416.675 31.8299 417.66 33.0247 418.874 33.0247C420.089 33.0247 421.073 31.8299 421.073 30.356C421.073 28.8821 420.089 27.6873 418.874 27.6873Z" fill="#8493AD"/>
<path d="M418.868 2.33435C418.261 2.33435 417.769 2.93177 417.769 3.66872C417.769 4.40567 418.261 5.00308 418.868 5.00308C419.476 5.00308 419.968 4.40567 419.968 3.66872C419.968 2.93177 419.476 2.33435 418.868 2.33435Z" fill="#8493AD"/>
<path d="M396.881 402.644C396.273 402.644 395.781 403.241 395.781 403.978C395.781 404.715 396.273 405.313 396.881 405.313C397.488 405.313 397.98 404.715 397.98 403.978C397.98 403.241 397.488 402.644 396.881 402.644Z" fill="#8493AD"/>
<path d="M396.881 375.957C396.273 375.957 395.781 376.554 395.781 377.291C395.781 378.028 396.273 378.625 396.881 378.625C397.488 378.625 397.98 378.028 397.98 377.291C397.98 376.554 397.488 375.957 396.881 375.957Z" fill="#8493AD"/>
<path d="M396.886 347.935C395.672 347.935 394.688 349.13 394.688 350.604C394.688 352.078 395.672 353.272 396.886 353.272C398.101 353.272 399.085 352.078 399.085 350.604C399.085 349.13 398.101 347.935 396.886 347.935Z" fill="#8493AD"/>
<path d="M396.881 322.582C396.273 322.582 395.781 323.179 395.781 323.916C395.781 324.653 396.273 325.251 396.881 325.251C397.488 325.251 397.98 324.653 397.98 323.916C397.98 323.179 397.488 322.582 396.881 322.582Z" fill="#8493AD"/>
<path d="M396.886 294.56C395.672 294.56 394.688 295.755 394.688 297.229C394.688 298.703 395.672 299.898 396.886 299.898C398.101 299.898 399.085 298.703 399.085 297.229C399.085 295.755 398.101 294.56 396.886 294.56Z" fill="#8493AD"/>
<path d="M396.886 267.873C395.672 267.873 394.688 269.068 394.688 270.542C394.688 272.016 395.672 273.211 396.886 273.211C398.101 273.211 399.085 272.016 399.085 270.542C399.085 269.068 398.101 267.873 396.886 267.873Z" fill="#8493AD"/>
<path d="M396.881 242.52C396.273 242.52 395.781 243.118 395.781 243.854C395.781 244.591 396.273 245.189 396.881 245.189C397.488 245.189 397.98 244.591 397.98 243.854C397.98 243.118 397.488 242.52 396.881 242.52Z" fill="#8493AD"/>
<path d="M396.881 215.833C396.273 215.833 395.781 216.43 395.781 217.167C395.781 217.904 396.273 218.502 396.881 218.502C397.488 218.502 397.98 217.904 397.98 217.167C397.98 216.43 397.488 215.833 396.881 215.833Z" fill="#8493AD"/>
<path d="M396.881 189.146C396.273 189.146 395.781 189.743 395.781 190.48C395.781 191.217 396.273 191.814 396.881 191.814C397.488 191.814 397.98 191.217 397.98 190.48C397.98 189.743 397.488 189.146 396.881 189.146Z" fill="#8493AD"/>
<path d="M396.881 162.458C396.273 162.458 395.781 163.056 395.781 163.793C395.781 164.53 396.273 165.127 396.881 165.127C397.488 165.127 397.98 164.53 397.98 163.793C397.98 163.056 397.488 162.458 396.881 162.458Z" fill="#8493AD"/>
<path d="M396.881 135.771C396.273 135.771 395.781 136.368 395.781 137.105C395.781 137.842 396.273 138.44 396.881 138.44C397.488 138.44 397.98 137.842 397.98 137.105C397.98 136.368 397.488 135.771 396.881 135.771Z" fill="#8493AD"/>
<path d="M396.881 109.084C396.273 109.084 395.781 109.681 395.781 110.418C395.781 111.155 396.273 111.752 396.881 111.752C397.488 111.752 397.98 111.155 397.98 110.418C397.98 109.681 397.488 109.084 396.881 109.084Z" fill="#8493AD"/>
<path d="M396.881 82.3963C396.273 82.3963 395.781 82.9937 395.781 83.7307C395.781 84.4676 396.273 85.065 396.881 85.065C397.488 85.065 397.98 84.4676 397.98 83.7307C397.98 82.9937 397.488 82.3963 396.881 82.3963Z" fill="#8493AD"/>
<path d="M396.881 55.709C396.273 55.709 395.781 56.3064 395.781 57.0434C395.781 57.7803 396.273 58.3777 396.881 58.3777C397.488 58.3777 397.98 57.7803 397.98 57.0434C397.98 56.3064 397.488 55.709 396.881 55.709Z" fill="#8493AD"/>
<path d="M396.881 29.0217C396.273 29.0217 395.781 29.6191 395.781 30.356C395.781 31.093 396.273 31.6904 396.881 31.6904C397.488 31.6904 397.98 31.093 397.98 30.356C397.98 29.6191 397.488 29.0217 396.881 29.0217Z" fill="#8493AD"/>
<path d="M396.881 2.33435C396.273 2.33435 395.781 2.93177 395.781 3.66872C395.781 4.40567 396.273 5.00308 396.881 5.00308C397.488 5.00308 397.98 4.40567 397.98 3.66872C397.98 2.93177 397.488 2.33435 396.881 2.33435Z" fill="#8493AD"/>
<path d="M374.893 375.957C374.286 375.957 373.793 376.554 373.793 377.291C373.793 378.028 374.286 378.625 374.893 378.625C375.5 378.625 375.992 378.028 375.992 377.291C375.992 376.554 375.5 375.957 374.893 375.957Z" fill="#8493AD"/>
<path d="M374.899 347.935C373.684 347.935 372.7 349.13 372.7 350.604C372.7 352.078 373.684 353.272 374.899 353.272C376.113 353.272 377.097 352.078 377.097 350.604C377.097 349.13 376.113 347.935 374.899 347.935Z" fill="#8493AD"/>
<path d="M374.893 322.582C374.286 322.582 373.793 323.179 373.793 323.916C373.793 324.653 374.286 325.251 374.893 325.251C375.5 325.251 375.992 324.653 375.992 323.916C375.992 323.179 375.5 322.582 374.893 322.582Z" fill="#8493AD"/>
<path d="M374.893 295.895C374.286 295.895 373.793 296.492 373.793 297.229C373.793 297.966 374.286 298.563 374.893 298.563C375.5 298.563 375.992 297.966 375.992 297.229C375.992 296.492 375.5 295.895 374.893 295.895Z" fill="#8493AD"/>
<path d="M374.893 269.207C374.286 269.207 373.793 269.805 373.793 270.542C373.793 271.279 374.286 271.876 374.893 271.876C375.5 271.876 375.992 271.279 375.992 270.542C375.992 269.805 375.5 269.207 374.893 269.207Z" fill="#8493AD"/>
<path d="M374.893 242.52C374.286 242.52 373.793 243.118 373.793 243.854C373.793 244.591 374.286 245.189 374.893 245.189C375.5 245.189 375.992 244.591 375.992 243.854C375.992 243.118 375.5 242.52 374.893 242.52Z" fill="#8493AD"/>
<path d="M374.899 214.498C373.684 214.498 372.7 215.693 372.7 217.167C372.7 218.641 373.684 219.836 374.899 219.836C376.113 219.836 377.097 218.641 377.097 217.167C377.097 215.693 376.113 214.498 374.899 214.498Z" fill="#8493AD"/>
<path d="M374.899 187.811C373.684 187.811 372.7 189.006 372.7 190.48C372.7 191.954 373.684 193.149 374.899 193.149C376.113 193.149 377.097 191.954 377.097 190.48C377.097 189.006 376.113 187.811 374.899 187.811Z" fill="#8493AD"/>
<path d="M374.893 162.458C374.286 162.458 373.793 163.056 373.793 163.793C373.793 164.53 374.286 165.127 374.893 165.127C375.5 165.127 375.992 164.53 375.992 163.793C375.992 163.056 375.5 162.458 374.893 162.458Z" fill="#8493AD"/>
<path d="M374.893 135.771C374.286 135.771 373.793 136.368 373.793 137.105C373.793 137.842 374.286 138.44 374.893 138.44C375.5 138.44 375.992 137.842 375.992 137.105C375.992 136.368 375.5 135.771 374.893 135.771Z" fill="#8493AD"/>
<path d="M374.893 109.084C374.286 109.084 373.793 109.681 373.793 110.418C373.793 111.155 374.286 111.752 374.893 111.752C375.5 111.752 375.992 111.155 375.992 110.418C375.992 109.681 375.5 109.084 374.893 109.084Z" fill="#8493AD"/>
<path d="M374.899 81.0619C373.684 81.0619 372.7 82.2568 372.7 83.7307C372.7 85.2046 373.684 86.3994 374.899 86.3994C376.113 86.3994 377.097 85.2046 377.097 83.7307C377.097 82.2568 376.113 81.0619 374.899 81.0619Z" fill="#8493AD"/>
<path d="M374.899 54.3746C373.684 54.3746 372.7 55.5694 372.7 57.0433C372.7 58.5172 373.684 59.7121 374.899 59.7121C376.113 59.7121 377.097 58.5172 377.097 57.0433C377.097 55.5694 376.113 54.3746 374.899 54.3746Z" fill="#8493AD"/>
<path d="M374.893 29.0217C374.286 29.0217 373.793 29.6191 373.793 30.356C373.793 31.093 374.286 31.6904 374.893 31.6904C375.5 31.6904 375.992 31.093 375.992 30.356C375.992 29.6191 375.5 29.0217 374.893 29.0217Z" fill="#8493AD"/>
<path d="M374.899 1C373.684 1 372.7 2.19483 372.7 3.66873C372.7 5.14263 373.684 6.33746 374.899 6.33746C376.113 6.33746 377.097 5.14263 377.097 3.66873C377.097 2.19483 376.113 1 374.899 1Z" fill="#8493AD"/>
<path d="M352.905 269.207C352.298 269.207 351.805 269.805 351.805 270.542C351.805 271.279 352.298 271.876 352.905 271.876C353.512 271.876 354.004 271.279 354.004 270.542C354.004 269.805 353.512 269.207 352.905 269.207Z" fill="#8493AD"/>
<path d="M352.905 242.52C352.298 242.52 351.805 243.118 351.805 243.854C351.805 244.591 352.298 245.189 352.905 245.189C353.512 245.189 354.004 244.591 354.004 243.854C354.004 243.118 353.512 242.52 352.905 242.52Z" fill="#8493AD"/>
<path d="M352.905 215.833C352.298 215.833 351.805 216.43 351.805 217.167C351.805 217.904 352.298 218.502 352.905 218.502C353.512 218.502 354.004 217.904 354.004 217.167C354.004 216.43 353.512 215.833 352.905 215.833Z" fill="#8493AD"/>
<path d="M352.911 187.811C351.696 187.811 350.712 189.006 350.712 190.48C350.712 191.954 351.696 193.149 352.911 193.149C354.125 193.149 355.109 191.954 355.109 190.48C355.109 189.006 354.125 187.811 352.911 187.811Z" fill="#8493AD"/>
<path d="M352.911 161.124C351.696 161.124 350.712 162.319 350.712 163.793C350.712 165.266 351.696 166.461 352.911 166.461C354.125 166.461 355.109 165.266 355.109 163.793C355.109 162.319 354.125 161.124 352.911 161.124Z" fill="#8493AD"/>
<path d="M352.905 135.771C352.298 135.771 351.805 136.368 351.805 137.105C351.805 137.842 352.298 138.44 352.905 138.44C353.512 138.44 354.004 137.842 354.004 137.105C354.004 136.368 353.512 135.771 352.905 135.771Z" fill="#8493AD"/>
<path d="M352.905 109.084C352.298 109.084 351.805 109.681 351.805 110.418C351.805 111.155 352.298 111.752 352.905 111.752C353.512 111.752 354.004 111.155 354.004 110.418C354.004 109.681 353.512 109.084 352.905 109.084Z" fill="#8493AD"/>
<path d="M352.911 81.0619C351.696 81.0619 350.712 82.2568 350.712 83.7307C350.712 85.2046 351.696 86.3994 352.911 86.3994C354.125 86.3994 355.109 85.2046 355.109 83.7307C355.109 82.2568 354.125 81.0619 352.911 81.0619Z" fill="#8493AD"/>
<path d="M352.911 54.3746C351.696 54.3746 350.712 55.5694 350.712 57.0433C350.712 58.5172 351.696 59.7121 352.911 59.7121C354.125 59.7121 355.109 58.5172 355.109 57.0433C355.109 55.5694 354.125 54.3746 352.911 54.3746Z" fill="#8493AD"/>
<path d="M352.905 29.0217C352.298 29.0217 351.805 29.6191 351.805 30.356C351.805 31.093 352.298 31.6904 352.905 31.6904C353.512 31.6904 354.004 31.093 354.004 30.356C354.004 29.6191 353.512 29.0217 352.905 29.0217Z" fill="#8493AD"/>
<path d="M352.911 1C351.696 1 350.712 2.19483 350.712 3.66873C350.712 5.14263 351.696 6.33746 352.911 6.33746C354.125 6.33746 355.109 5.14263 355.109 3.66873C355.109 2.19483 354.125 1 352.911 1Z" fill="#8493AD"/>
<path d="M330.917 242.52C330.31 242.52 329.818 243.118 329.818 243.854C329.818 244.591 330.31 245.189 330.917 245.189C331.524 245.189 332.016 244.591 332.016 243.854C332.016 243.118 331.524 242.52 330.917 242.52Z" fill="#8493AD"/>
<path d="M330.923 214.498C329.709 214.498 328.724 215.693 328.724 217.167C328.724 218.641 329.709 219.836 330.923 219.836C332.137 219.836 333.122 218.641 333.122 217.167C333.122 215.693 332.137 214.498 330.923 214.498Z" fill="#8493AD"/>
<path d="M330.917 189.146C330.31 189.146 329.818 189.743 329.818 190.48C329.818 191.217 330.31 191.814 330.917 191.814C331.524 191.814 332.016 191.217 332.016 190.48C332.016 189.743 331.524 189.146 330.917 189.146Z" fill="#8493AD"/>
<path d="M330.923 161.124C329.709 161.124 328.724 162.319 328.724 163.793C328.724 165.266 329.709 166.461 330.923 166.461C332.137 166.461 333.122 165.266 333.122 163.793C333.122 162.319 332.137 161.124 330.923 161.124Z" fill="#8493AD"/>
<path d="M330.917 135.771C330.31 135.771 329.818 136.368 329.818 137.105C329.818 137.842 330.31 138.44 330.917 138.44C331.524 138.44 332.016 137.842 332.016 137.105C332.016 136.368 331.524 135.771 330.917 135.771Z" fill="#8493AD"/>
<path d="M330.917 109.084C330.31 109.084 329.818 109.681 329.818 110.418C329.818 111.155 330.31 111.752 330.917 111.752C331.524 111.752 332.016 111.155 332.016 110.418C332.016 109.681 331.524 109.084 330.917 109.084Z" fill="#8493AD"/>
<path d="M330.917 82.3963C330.31 82.3963 329.818 82.9937 329.818 83.7307C329.818 84.4676 330.31 85.065 330.917 85.065C331.524 85.065 332.016 84.4676 332.016 83.7307C332.016 82.9937 331.524 82.3963 330.917 82.3963Z" fill="#8493AD"/>
<path d="M330.917 55.709C330.31 55.709 329.818 56.3064 329.818 57.0434C329.818 57.7803 330.31 58.3777 330.917 58.3777C331.524 58.3777 332.016 57.7803 332.016 57.0434C332.016 56.3064 331.524 55.709 330.917 55.709Z" fill="#8493AD"/>
<path d="M330.917 29.0217C330.31 29.0217 329.818 29.6191 329.818 30.356C329.818 31.093 330.31 31.6904 330.917 31.6904C331.524 31.6904 332.016 31.093 332.016 30.356C332.016 29.6191 331.524 29.0217 330.917 29.0217Z" fill="#8493AD"/>
<path d="M330.923 1C329.709 1 328.724 2.19483 328.724 3.66873C328.724 5.14263 329.709 6.33746 330.923 6.33746C332.137 6.33746 333.122 5.14263 333.122 3.66873C333.122 2.19483 332.137 1 330.923 1Z" fill="#8493AD"/>
<path d="M308.929 242.52C308.322 242.52 307.83 243.118 307.83 243.854C307.83 244.591 308.322 245.189 308.929 245.189C309.536 245.189 310.029 244.591 310.029 243.854C310.029 243.118 309.536 242.52 308.929 242.52Z" fill="#8493AD"/>
<path d="M308.935 214.498C307.721 214.498 306.736 215.693 306.736 217.167C306.736 218.641 307.721 219.836 308.935 219.836C310.149 219.836 311.134 218.641 311.134 217.167C311.134 215.693 310.149 214.498 308.935 214.498Z" fill="#8493AD"/>
<path d="M308.929 189.146C308.322 189.146 307.83 189.743 307.83 190.48C307.83 191.217 308.322 191.814 308.929 191.814C309.536 191.814 310.029 191.217 310.029 190.48C310.029 189.743 309.536 189.146 308.929 189.146Z" fill="#8493AD"/>
<path d="M308.929 162.458C308.322 162.458 307.83 163.056 307.83 163.793C307.83 164.53 308.322 165.127 308.929 165.127C309.536 165.127 310.029 164.53 310.029 163.793C310.029 163.056 309.536 162.458 308.929 162.458Z" fill="#8493AD"/>
<path d="M308.935 134.437C307.721 134.437 306.736 135.631 306.736 137.105C306.736 138.579 307.721 139.774 308.935 139.774C310.149 139.774 311.134 138.579 311.134 137.105C311.134 135.631 310.149 134.437 308.935 134.437Z" fill="#8493AD"/>
<path d="M308.929 109.084C308.322 109.084 307.83 109.681 307.83 110.418C307.83 111.155 308.322 111.752 308.929 111.752C309.536 111.752 310.029 111.155 310.029 110.418C310.029 109.681 309.536 109.084 308.929 109.084Z" fill="#8493AD"/>
<path d="M308.929 82.3963C308.322 82.3963 307.83 82.9937 307.83 83.7307C307.83 84.4676 308.322 85.065 308.929 85.065C309.536 85.065 310.029 84.4676 310.029 83.7307C310.029 82.9937 309.536 82.3963 308.929 82.3963Z" fill="#8493AD"/>
<path d="M308.929 55.709C308.322 55.709 307.83 56.3064 307.83 57.0434C307.83 57.7803 308.322 58.3777 308.929 58.3777C309.536 58.3777 310.029 57.7803 310.029 57.0434C310.029 56.3064 309.536 55.709 308.929 55.709Z" fill="#8493AD"/>
<path d="M308.929 29.0217C308.322 29.0217 307.83 29.6191 307.83 30.356C307.83 31.093 308.322 31.6904 308.929 31.6904C309.536 31.6904 310.029 31.093 310.029 30.356C310.029 29.6191 309.536 29.0217 308.929 29.0217Z" fill="#8493AD"/>
<path d="M308.929 2.33435C308.322 2.33435 307.83 2.93177 307.83 3.66872C307.83 4.40567 308.322 5.00308 308.929 5.00308C309.536 5.00308 310.029 4.40567 310.029 3.66872C310.029 2.93177 309.536 2.33435 308.929 2.33435Z" fill="#8493AD"/>
<path d="M286.941 269.207C286.334 269.207 285.842 269.805 285.842 270.542C285.842 271.279 286.334 271.876 286.941 271.876C287.549 271.876 288.041 271.279 288.041 270.542C288.041 269.805 287.549 269.207 286.941 269.207Z" fill="#8493AD"/>
<path d="M286.941 242.52C286.334 242.52 285.842 243.118 285.842 243.854C285.842 244.591 286.334 245.189 286.941 245.189C287.549 245.189 288.041 244.591 288.041 243.854C288.041 243.118 287.549 242.52 286.941 242.52Z" fill="#8493AD"/>
<path d="M286.947 214.498C285.733 214.498 284.748 215.693 284.748 217.167C284.748 218.641 285.733 219.836 286.947 219.836C288.162 219.836 289.146 218.641 289.146 217.167C289.146 215.693 288.162 214.498 286.947 214.498Z" fill="#8493AD"/>
<path d="M286.947 187.811C285.733 187.811 284.748 189.006 284.748 190.48C284.748 191.954 285.733 193.149 286.947 193.149C288.162 193.149 289.146 191.954 289.146 190.48C289.146 189.006 288.162 187.811 286.947 187.811Z" fill="#8493AD"/>
<path d="M286.941 162.458C286.334 162.458 285.842 163.056 285.842 163.793C285.842 164.53 286.334 165.127 286.941 165.127C287.549 165.127 288.041 164.53 288.041 163.793C288.041 163.056 287.549 162.458 286.941 162.458Z" fill="#8493AD"/>
<path d="M286.941 135.771C286.334 135.771 285.842 136.368 285.842 137.105C285.842 137.842 286.334 138.44 286.941 138.44C287.549 138.44 288.041 137.842 288.041 137.105C288.041 136.368 287.549 135.771 286.941 135.771Z" fill="#8493AD"/>
<path d="M286.941 109.084C286.334 109.084 285.842 109.681 285.842 110.418C285.842 111.155 286.334 111.752 286.941 111.752C287.549 111.752 288.041 111.155 288.041 110.418C288.041 109.681 287.549 109.084 286.941 109.084Z" fill="#8493AD"/>
<path d="M286.941 82.3963C286.334 82.3963 285.842 82.9937 285.842 83.7307C285.842 84.4676 286.334 85.065 286.941 85.065C287.549 85.065 288.041 84.4676 288.041 83.7307C288.041 82.9937 287.549 82.3963 286.941 82.3963Z" fill="#8493AD"/>
<path d="M286.941 55.709C286.334 55.709 285.842 56.3064 285.842 57.0434C285.842 57.7803 286.334 58.3777 286.941 58.3777C287.549 58.3777 288.041 57.7803 288.041 57.0434C288.041 56.3064 287.549 55.709 286.941 55.709Z" fill="#8493AD"/>
<path d="M286.941 29.0217C286.334 29.0217 285.842 29.6191 285.842 30.356C285.842 31.093 286.334 31.6904 286.941 31.6904C287.549 31.6904 288.041 31.093 288.041 30.356C288.041 29.6191 287.549 29.0217 286.941 29.0217Z" fill="#8493AD"/>
<path d="M286.947 1C285.733 1 284.748 2.19483 284.748 3.66873C284.748 5.14263 285.733 6.33746 286.947 6.33746C288.162 6.33746 289.146 5.14263 289.146 3.66873C289.146 2.19483 288.162 1 286.947 1Z" fill="#8493AD"/>
<path d="M264.959 187.811C263.745 187.811 262.761 189.006 262.761 190.48C262.761 191.954 263.745 193.149 264.959 193.149C266.174 193.149 267.158 191.954 267.158 190.48C267.158 189.006 266.174 187.811 264.959 187.811Z" fill="#8493AD"/>
<path d="M264.953 162.458C264.346 162.458 263.854 163.056 263.854 163.793C263.854 164.53 264.346 165.127 264.953 165.127C265.561 165.127 266.053 164.53 266.053 163.793C266.053 163.056 265.561 162.458 264.953 162.458Z" fill="#8493AD"/>
<path d="M264.959 134.437C263.745 134.437 262.761 135.631 262.761 137.105C262.761 138.579 263.745 139.774 264.959 139.774C266.174 139.774 267.158 138.579 267.158 137.105C267.158 135.631 266.174 134.437 264.959 134.437Z" fill="#8493AD"/>
<path d="M264.953 109.084C264.346 109.084 263.854 109.681 263.854 110.418C263.854 111.155 264.346 111.752 264.953 111.752C265.561 111.752 266.053 111.155 266.053 110.418C266.053 109.681 265.561 109.084 264.953 109.084Z" fill="#8493AD"/>
<path d="M264.953 82.3963C264.346 82.3963 263.854 82.9937 263.854 83.7307C263.854 84.4676 264.346 85.065 264.953 85.065C265.561 85.065 266.053 84.4676 266.053 83.7307C266.053 82.9937 265.561 82.3963 264.953 82.3963Z" fill="#8493AD"/>
<path d="M264.953 55.709C264.346 55.709 263.854 56.3064 263.854 57.0434C263.854 57.7803 264.346 58.3777 264.953 58.3777C265.561 58.3777 266.053 57.7803 266.053 57.0434C266.053 56.3064 265.561 55.709 264.953 55.709Z" fill="#8493AD"/>
<path d="M264.953 29.0217C264.346 29.0217 263.854 29.6191 263.854 30.356C263.854 31.093 264.346 31.6904 264.953 31.6904C265.561 31.6904 266.053 31.093 266.053 30.356C266.053 29.6191 265.561 29.0217 264.953 29.0217Z" fill="#8493AD"/>
<path d="M264.959 1C263.745 1 262.761 2.19483 262.761 3.66873C262.761 5.14263 263.745 6.33746 264.959 6.33746C266.174 6.33746 267.158 5.14263 267.158 3.66873C267.158 2.19483 266.174 1 264.959 1Z" fill="#8493AD"/>
<path d="M242.971 187.811C241.757 187.811 240.773 189.006 240.773 190.48C240.773 191.954 241.757 193.149 242.971 193.149C244.186 193.149 245.17 191.954 245.17 190.48C245.17 189.006 244.186 187.811 242.971 187.811Z" fill="#8493AD"/>
<path d="M242.971 161.124C241.757 161.124 240.773 162.319 240.773 163.793C240.773 165.266 241.757 166.461 242.971 166.461C244.186 166.461 245.17 165.266 245.17 163.793C245.17 162.319 244.186 161.124 242.971 161.124Z" fill="#8493AD"/>
<path d="M242.971 134.437C241.757 134.437 240.773 135.631 240.773 137.105C240.773 138.579 241.757 139.774 242.971 139.774C244.186 139.774 245.17 138.579 245.17 137.105C245.17 135.631 244.186 134.437 242.971 134.437Z" fill="#8493AD"/>
<path d="M242.966 109.084C242.358 109.084 241.866 109.681 241.866 110.418C241.866 111.155 242.358 111.752 242.966 111.752C243.573 111.752 244.065 111.155 244.065 110.418C244.065 109.681 243.573 109.084 242.966 109.084Z" fill="#8493AD"/>
<path d="M242.966 82.3963C242.358 82.3963 241.866 82.9937 241.866 83.7307C241.866 84.4676 242.358 85.065 242.966 85.065C243.573 85.065 244.065 84.4676 244.065 83.7307C244.065 82.9937 243.573 82.3963 242.966 82.3963Z" fill="#8493AD"/>
<path d="M242.966 55.709C242.358 55.709 241.866 56.3064 241.866 57.0434C241.866 57.7803 242.358 58.3777 242.966 58.3777C243.573 58.3777 244.065 57.7803 244.065 57.0434C244.065 56.3064 243.573 55.709 242.966 55.709Z" fill="#8493AD"/>
<path d="M242.966 29.0217C242.358 29.0217 241.866 29.6191 241.866 30.356C241.866 31.093 242.358 31.6904 242.966 31.6904C243.573 31.6904 244.065 31.093 244.065 30.356C244.065 29.6191 243.573 29.0217 242.966 29.0217Z" fill="#8493AD"/>
<path d="M242.966 2.33435C242.358 2.33435 241.866 2.93177 241.866 3.66872C241.866 4.40567 242.358 5.00308 242.966 5.00308C243.573 5.00308 244.065 4.40567 244.065 3.66872C244.065 2.93177 243.573 2.33435 242.966 2.33435Z" fill="#8493AD"/>
<path d="M220.978 162.458C220.371 162.458 219.878 163.056 219.878 163.793C219.878 164.53 220.371 165.127 220.978 165.127C221.585 165.127 222.077 164.53 222.077 163.793C222.077 163.056 221.585 162.458 220.978 162.458Z" fill="#8493AD"/>
<path d="M220.984 134.437C219.769 134.437 218.785 135.631 218.785 137.105C218.785 138.579 219.769 139.774 220.984 139.774C222.198 139.774 223.182 138.579 223.182 137.105C223.182 135.631 222.198 134.437 220.984 134.437Z" fill="#8493AD"/>
<path d="M220.978 109.084C220.371 109.084 219.878 109.681 219.878 110.418C219.878 111.155 220.371 111.752 220.978 111.752C221.585 111.752 222.077 111.155 222.077 110.418C222.077 109.681 221.585 109.084 220.978 109.084Z" fill="#8493AD"/>
<path d="M220.978 82.3963C220.371 82.3963 219.878 82.9937 219.878 83.7307C219.878 84.4676 220.371 85.065 220.978 85.065C221.585 85.065 222.077 84.4676 222.077 83.7307C222.077 82.9937 221.585 82.3963 220.978 82.3963Z" fill="#8493AD"/>
<path d="M220.978 55.709C220.371 55.709 219.878 56.3064 219.878 57.0434C219.878 57.7803 220.371 58.3777 220.978 58.3777C221.585 58.3777 222.077 57.7803 222.077 57.0434C222.077 56.3064 221.585 55.709 220.978 55.709Z" fill="#8493AD"/>
<path d="M220.984 27.6873C219.769 27.6873 218.785 28.8821 218.785 30.356C218.785 31.8299 219.769 33.0247 220.984 33.0247C222.198 33.0247 223.182 31.8299 223.182 30.356C223.182 28.8821 222.198 27.6873 220.984 27.6873Z" fill="#8493AD"/>
<path d="M220.984 1C219.769 1 218.785 2.19483 218.785 3.66873C218.785 5.14263 219.769 6.33746 220.984 6.33746C222.198 6.33746 223.182 5.14263 223.182 3.66873C223.182 2.19483 222.198 1 220.984 1Z" fill="#8493AD"/>
<path d="M198.99 162.458C198.383 162.458 197.891 163.056 197.891 163.793C197.891 164.53 198.383 165.127 198.99 165.127C199.597 165.127 200.089 164.53 200.089 163.793C200.089 163.056 199.597 162.458 198.99 162.458Z" fill="#8493AD"/>
<path d="M198.99 135.771C198.383 135.771 197.891 136.368 197.891 137.105C197.891 137.842 198.383 138.44 198.99 138.44C199.597 138.44 200.089 137.842 200.089 137.105C200.089 136.368 199.597 135.771 198.99 135.771Z" fill="#8493AD"/>
<path d="M198.99 109.084C198.383 109.084 197.891 109.681 197.891 110.418C197.891 111.155 198.383 111.752 198.99 111.752C199.597 111.752 200.089 111.155 200.089 110.418C200.089 109.681 199.597 109.084 198.99 109.084Z" fill="#8493AD"/>
<path d="M198.99 82.3963C198.383 82.3963 197.891 82.9937 197.891 83.7307C197.891 84.4676 198.383 85.065 198.99 85.065C199.597 85.065 200.089 84.4676 200.089 83.7307C200.089 82.9937 199.597 82.3963 198.99 82.3963Z" fill="#8493AD"/>
<path d="M198.99 55.709C198.383 55.709 197.891 56.3064 197.891 57.0434C197.891 57.7803 198.383 58.3777 198.99 58.3777C199.597 58.3777 200.089 57.7803 200.089 57.0434C200.089 56.3064 199.597 55.709 198.99 55.709Z" fill="#8493AD"/>
<path d="M198.99 29.0217C198.383 29.0217 197.891 29.6191 197.891 30.356C197.891 31.093 198.383 31.6904 198.99 31.6904C199.597 31.6904 200.089 31.093 200.089 30.356C200.089 29.6191 199.597 29.0217 198.99 29.0217Z" fill="#8493AD"/>
<path d="M198.996 1C197.781 1 196.797 2.19483 196.797 3.66873C196.797 5.14263 197.781 6.33746 198.996 6.33746C200.21 6.33746 201.195 5.14263 201.195 3.66873C201.195 2.19483 200.21 1 198.996 1Z" fill="#8493AD"/>
<path d="M177.002 135.771C176.395 135.771 175.903 136.368 175.903 137.105C175.903 137.842 176.395 138.44 177.002 138.44C177.609 138.44 178.101 137.842 178.101 137.105C178.101 136.368 177.609 135.771 177.002 135.771Z" fill="#8493AD"/>
<path d="M177.002 109.084C176.395 109.084 175.903 109.681 175.903 110.418C175.903 111.155 176.395 111.752 177.002 111.752C177.609 111.752 178.101 111.155 178.101 110.418C178.101 109.681 177.609 109.084 177.002 109.084Z" fill="#8493AD"/>
<path d="M177.008 81.0619C175.794 81.0619 174.809 82.2568 174.809 83.7307C174.809 85.2046 175.794 86.3994 177.008 86.3994C178.222 86.3994 179.207 85.2046 179.207 83.7307C179.207 82.2568 178.222 81.0619 177.008 81.0619Z" fill="#8493AD"/>
<path d="M177.002 55.709C176.395 55.709 175.903 56.3064 175.903 57.0434C175.903 57.7803 176.395 58.3777 177.002 58.3777C177.609 58.3777 178.101 57.7803 178.101 57.0434C178.101 56.3064 177.609 55.709 177.002 55.709Z" fill="#8493AD"/>
<path d="M177.002 29.0217C176.395 29.0217 175.903 29.6191 175.903 30.356C175.903 31.093 176.395 31.6904 177.002 31.6904C177.609 31.6904 178.101 31.093 178.101 30.356C178.101 29.6191 177.609 29.0217 177.002 29.0217Z" fill="#8493AD"/>
<path d="M177.008 1C175.794 1 174.809 2.19483 174.809 3.66873C174.809 5.14263 175.794 6.33746 177.008 6.33746C178.222 6.33746 179.207 5.14263 179.207 3.66873C179.207 2.19483 178.222 1 177.008 1Z" fill="#8493AD"/>
<path d="M155.014 162.458C154.407 162.458 153.915 163.056 153.915 163.793C153.915 164.53 154.407 165.127 155.014 165.127C155.621 165.127 156.114 164.53 156.114 163.793C156.114 163.056 155.621 162.458 155.014 162.458Z" fill="#8493AD"/>
<path d="M155.02 134.437C153.806 134.437 152.821 135.631 152.821 137.105C152.821 138.579 153.806 139.774 155.02 139.774C156.234 139.774 157.219 138.579 157.219 137.105C157.219 135.631 156.234 134.437 155.02 134.437Z" fill="#8493AD"/>
<path d="M155.014 109.084C154.407 109.084 153.915 109.681 153.915 110.418C153.915 111.155 154.407 111.752 155.014 111.752C155.621 111.752 156.114 111.155 156.114 110.418C156.114 109.681 155.621 109.084 155.014 109.084Z" fill="#8493AD"/>
<path d="M155.014 82.3963C154.407 82.3963 153.915 82.9937 153.915 83.7307C153.915 84.4676 154.407 85.065 155.014 85.065C155.621 85.065 156.114 84.4676 156.114 83.7307C156.114 82.9937 155.621 82.3963 155.014 82.3963Z" fill="#8493AD"/>
<path d="M155.014 55.709C154.407 55.709 153.915 56.3064 153.915 57.0434C153.915 57.7803 154.407 58.3777 155.014 58.3777C155.621 58.3777 156.114 57.7803 156.114 57.0434C156.114 56.3064 155.621 55.709 155.014 55.709Z" fill="#8493AD"/>
<path d="M155.014 29.0217C154.407 29.0217 153.915 29.6191 153.915 30.356C153.915 31.093 154.407 31.6904 155.014 31.6904C155.621 31.6904 156.114 31.093 156.114 30.356C156.114 29.6191 155.621 29.0217 155.014 29.0217Z" fill="#8493AD"/>
<path d="M155.014 2.33435C154.407 2.33435 153.915 2.93177 153.915 3.66872C153.915 4.40567 154.407 5.00308 155.014 5.00308C155.621 5.00308 156.114 4.40567 156.114 3.66872C156.114 2.93177 155.621 2.33435 155.014 2.33435Z" fill="#8493AD"/>
<path d="M133.026 135.771C132.419 135.771 131.927 136.368 131.927 137.105C131.927 137.842 132.419 138.44 133.026 138.44C133.634 138.44 134.126 137.842 134.126 137.105C134.126 136.368 133.634 135.771 133.026 135.771Z" fill="#8493AD"/>
<path d="M133.026 109.084C132.419 109.084 131.927 109.681 131.927 110.418C131.927 111.155 132.419 111.752 133.026 111.752C133.634 111.752 134.126 111.155 134.126 110.418C134.126 109.681 133.634 109.084 133.026 109.084Z" fill="#8493AD"/>
<path d="M133.032 81.0619C131.818 81.0619 130.834 82.2568 130.834 83.7307C130.834 85.2046 131.818 86.3994 133.032 86.3994C134.247 86.3994 135.231 85.2046 135.231 83.7307C135.231 82.2568 134.247 81.0619 133.032 81.0619Z" fill="#8493AD"/>
<path d="M133.026 55.709C132.419 55.709 131.927 56.3064 131.927 57.0434C131.927 57.7803 132.419 58.3777 133.026 58.3777C133.634 58.3777 134.126 57.7803 134.126 57.0434C134.126 56.3064 133.634 55.709 133.026 55.709Z" fill="#8493AD"/>
<path d="M133.026 29.0217C132.419 29.0217 131.927 29.6191 131.927 30.356C131.927 31.093 132.419 31.6904 133.026 31.6904C133.634 31.6904 134.126 31.093 134.126 30.356C134.126 29.6191 133.634 29.0217 133.026 29.0217Z" fill="#8493AD"/>
<path d="M133.026 2.33435C132.419 2.33435 131.927 2.93177 131.927 3.66872C131.927 4.40567 132.419 5.00308 133.026 5.00308C133.634 5.00308 134.126 4.40567 134.126 3.66872C134.126 2.93177 133.634 2.33435 133.026 2.33435Z" fill="#8493AD"/>
<path d="M111.039 135.771C110.431 135.771 109.939 136.368 109.939 137.105C109.939 137.842 110.431 138.44 111.039 138.44C111.646 138.44 112.138 137.842 112.138 137.105C112.138 136.368 111.646 135.771 111.039 135.771Z" fill="#8493AD"/>
<path d="M111.039 109.084C110.431 109.084 109.939 109.681 109.939 110.418C109.939 111.155 110.431 111.752 111.039 111.752C111.646 111.752 112.138 111.155 112.138 110.418C112.138 109.681 111.646 109.084 111.039 109.084Z" fill="#8493AD"/>
<path d="M111.044 81.0619C109.83 81.0619 108.846 82.2568 108.846 83.7307C108.846 85.2046 109.83 86.3994 111.044 86.3994C112.259 86.3994 113.243 85.2046 113.243 83.7307C113.243 82.2568 112.259 81.0619 111.044 81.0619Z" fill="#8493AD"/>
<path d="M111.039 55.709C110.431 55.709 109.939 56.3064 109.939 57.0434C109.939 57.7803 110.431 58.3777 111.039 58.3777C111.646 58.3777 112.138 57.7803 112.138 57.0434C112.138 56.3064 111.646 55.709 111.039 55.709Z" fill="#8493AD"/>
<path d="M111.039 29.0217C110.431 29.0217 109.939 29.6191 109.939 30.356C109.939 31.093 110.431 31.6904 111.039 31.6904C111.646 31.6904 112.138 31.093 112.138 30.356C112.138 29.6191 111.646 29.0217 111.039 29.0217Z" fill="#8493AD"/>
<path d="M111.044 1C109.83 1 108.846 2.19483 108.846 3.66873C108.846 5.14263 109.83 6.33746 111.044 6.33746C112.259 6.33746 113.243 5.14263 113.243 3.66873C113.243 2.19483 112.259 1 111.044 1Z" fill="#8493AD"/>
<path d="M89.0566 107.749C87.8422 107.749 86.8578 108.944 86.8578 110.418C86.8578 111.892 87.8422 113.087 89.0566 113.087C90.2709 113.087 91.2553 111.892 91.2553 110.418C91.2553 108.944 90.2709 107.749 89.0566 107.749Z" fill="#8493AD"/>
<path d="M89.0507 82.3963C88.4435 82.3963 87.9513 82.9937 87.9513 83.7307C87.9513 84.4676 88.4435 85.065 89.0507 85.065C89.6579 85.065 90.1501 84.4676 90.1501 83.7307C90.1501 82.9937 89.6579 82.3963 89.0507 82.3963Z" fill="#8493AD"/>
<path d="M89.0507 55.709C88.4435 55.709 87.9513 56.3064 87.9513 57.0434C87.9513 57.7803 88.4435 58.3777 89.0507 58.3777C89.6579 58.3777 90.1501 57.7803 90.1501 57.0434C90.1501 56.3064 89.6579 55.709 89.0507 55.709Z" fill="#8493AD"/>
<path d="M89.0566 27.6873C87.8422 27.6873 86.8578 28.8821 86.8578 30.356C86.8578 31.8299 87.8422 33.0247 89.0566 33.0247C90.2709 33.0247 91.2553 31.8299 91.2553 30.356C91.2553 28.8821 90.2709 27.6873 89.0566 27.6873Z" fill="#8493AD"/>
<path d="M89.0566 1C87.8422 1 86.8578 2.19483 86.8578 3.66873C86.8578 5.14263 87.8422 6.33746 89.0566 6.33746C90.2709 6.33746 91.2553 5.14263 91.2553 3.66873C91.2553 2.19483 90.2709 1 89.0566 1Z" fill="#8493AD"/>
<path d="M67.0687 134.437C65.8543 134.437 64.8699 135.631 64.8699 137.105C64.8699 138.579 65.8543 139.774 67.0687 139.774C68.2831 139.774 69.2675 138.579 69.2675 137.105C69.2675 135.631 68.2831 134.437 67.0687 134.437Z" fill="#8493AD"/>
<path d="M67.0687 107.749C65.8543 107.749 64.8699 108.944 64.8699 110.418C64.8699 111.892 65.8543 113.087 67.0687 113.087C68.2831 113.087 69.2675 111.892 69.2675 110.418C69.2675 108.944 68.2831 107.749 67.0687 107.749Z" fill="#8493AD"/>
<path d="M67.0628 82.3963C66.4557 82.3963 65.9634 82.9937 65.9634 83.7307C65.9634 84.4676 66.4557 85.065 67.0628 85.065C67.67 85.065 68.1622 84.4676 68.1622 83.7307C68.1622 82.9937 67.67 82.3963 67.0628 82.3963Z" fill="#8493AD"/>
<path d="M67.0628 55.709C66.4557 55.709 65.9634 56.3064 65.9634 57.0434C65.9634 57.7803 66.4557 58.3777 67.0628 58.3777C67.67 58.3777 68.1622 57.7803 68.1622 57.0434C68.1622 56.3064 67.67 55.709 67.0628 55.709Z" fill="#8493AD"/>
<path d="M67.0687 27.6873C65.8543 27.6873 64.8699 28.8821 64.8699 30.356C64.8699 31.8299 65.8543 33.0247 67.0687 33.0247C68.2831 33.0247 69.2675 31.8299 69.2675 30.356C69.2675 28.8821 68.2831 27.6873 67.0687 27.6873Z" fill="#8493AD"/>
<path d="M67.0628 2.33435C66.4557 2.33435 65.9634 2.93177 65.9634 3.66872C65.9634 4.40567 66.4557 5.00308 67.0628 5.00308C67.67 5.00308 68.1622 4.40567 68.1622 3.66872C68.1622 2.93177 67.67 2.33435 67.0628 2.33435Z" fill="#8493AD"/>
<path d="M45.075 135.771C44.4678 135.771 43.9756 136.368 43.9756 137.105C43.9756 137.842 44.4678 138.44 45.075 138.44C45.6822 138.44 46.1744 137.842 46.1744 137.105C46.1744 136.368 45.6822 135.771 45.075 135.771Z" fill="#8493AD"/>
<path d="M45.0809 107.749C43.8666 107.749 42.8821 108.944 42.8821 110.418C42.8821 111.892 43.8666 113.087 45.0809 113.087C46.2953 113.087 47.2797 111.892 47.2797 110.418C47.2797 108.944 46.2953 107.749 45.0809 107.749Z" fill="#8493AD"/>
<path d="M45.075 82.3963C44.4678 82.3963 43.9756 82.9937 43.9756 83.7307C43.9756 84.4676 44.4678 85.065 45.075 85.065C45.6822 85.065 46.1744 84.4676 46.1744 83.7307C46.1744 82.9937 45.6822 82.3963 45.075 82.3963Z" fill="#8493AD"/>
<path d="M45.075 55.709C44.4678 55.709 43.9756 56.3064 43.9756 57.0434C43.9756 57.7803 44.4678 58.3777 45.075 58.3777C45.6822 58.3777 46.1744 57.7803 46.1744 57.0434C46.1744 56.3064 45.6822 55.709 45.075 55.709Z" fill="#8493AD"/>
<path d="M45.075 29.0217C44.4678 29.0217 43.9756 29.6191 43.9756 30.356C43.9756 31.093 44.4678 31.6904 45.075 31.6904C45.6822 31.6904 46.1744 31.093 46.1744 30.356C46.1744 29.6191 45.6822 29.0217 45.075 29.0217Z" fill="#8493AD"/>
<path d="M45.075 2.33435C44.4678 2.33435 43.9756 2.93177 43.9756 3.66872C43.9756 4.40567 44.4678 5.00308 45.075 5.00308C45.6822 5.00308 46.1744 4.40567 46.1744 3.66872C46.1744 2.93177 45.6822 2.33435 45.075 2.33435Z" fill="#8493AD"/>
<path d="M23.0872 82.3963C22.48 82.3963 21.9878 82.9937 21.9878 83.7307C21.9878 84.4676 22.48 85.065 23.0872 85.065C23.6944 85.065 24.1866 84.4676 24.1866 83.7307C24.1866 82.9937 23.6944 82.3963 23.0872 82.3963Z" fill="#8493AD"/>
<path d="M23.0872 55.709C22.48 55.709 21.9878 56.3064 21.9878 57.0434C21.9878 57.7803 22.48 58.3777 23.0872 58.3777C23.6944 58.3777 24.1866 57.7803 24.1866 57.0434C24.1866 56.3064 23.6944 55.709 23.0872 55.709Z" fill="#8493AD"/>
<path d="M23.0872 29.0217C22.48 29.0217 21.9878 29.6191 21.9878 30.356C21.9878 31.093 22.48 31.6904 23.0872 31.6904C23.6944 31.6904 24.1866 31.093 24.1866 30.356C24.1866 29.6191 23.6944 29.0217 23.0872 29.0217Z" fill="#8493AD"/>
<path d="M23.093 1C21.8787 1 20.8942 2.19483 20.8942 3.66873C20.8942 5.14263 21.8787 6.33746 23.093 6.33746C24.3074 6.33746 25.2918 5.14263 25.2918 3.66873C25.2918 2.19483 24.3074 1 23.093 1Z" fill="#8493AD"/>
<path d="M1.09934 29.0217C0.492161 29.0217 -5.399e-05 29.6191 -5.399e-05 30.356C-5.399e-05 31.093 0.492161 31.6904 1.09934 31.6904C1.70652 31.6904 2.19873 31.093 2.19873 30.356C2.19873 29.6191 1.70652 29.0217 1.09934 29.0217Z" fill="#8493AD"/>
<path d="M1.09934 2.33435C0.492161 2.33435 -5.399e-05 2.93177 -5.399e-05 3.66872C-5.399e-05 4.40567 0.492161 5.00308 1.09934 5.00308C1.70652 5.00308 2.19873 4.40567 2.19873 3.66872C2.19873 2.93177 1.70652 2.33435 1.09934 2.33435Z" fill="#8493AD"/>
</g>
<path d="M442.809 355.875L442.973 356.347L443.443 356.175L443.279 355.702L442.809 355.875ZM409.269 259.297L409.738 259.125L409.574 258.653L409.105 258.825L409.269 259.297ZM407.093 369.008L406.624 369.18L406.788 369.652L407.257 369.48L407.093 369.008ZM384.995 305.379L385.465 305.207L385.301 304.735L384.831 304.907L384.995 305.379ZM318.446 329.85L317.976 330.022L318.14 330.494L318.61 330.322L318.446 329.85ZM306.977 296.826L306.813 296.353L306.343 296.526L306.507 296.998L306.977 296.826ZM374.578 271.969L375.047 271.796L374.883 271.324L374.414 271.497L374.578 271.969ZM374.604 272.044L374.135 272.216L374.299 272.688L374.768 272.516L374.604 272.044ZM443.279 355.702L409.738 259.125L408.8 259.47L442.34 356.047L443.279 355.702ZM407.257 369.48L442.973 356.347L442.645 355.402L406.929 368.535L407.257 369.48ZM384.526 305.552L406.624 369.18L407.562 368.835L385.465 305.207L384.526 305.552ZM318.61 330.322L385.159 305.852L384.831 304.907L318.282 329.377L318.61 330.322ZM306.507 296.998L317.976 330.022L318.915 329.677L307.446 296.653L306.507 296.998ZM374.414 271.497L306.813 296.353L307.141 297.298L374.742 272.441L374.414 271.497ZM375.073 271.871L375.047 271.796L374.109 272.142L374.135 272.216L375.073 271.871ZM409.105 258.825L374.44 271.571L374.768 272.516L409.433 259.77L409.105 258.825Z" fill="url(#paint0_linear_6_820)"/>
<path d="M377.129 289.545C374.775 282.767 367.25 279.314 360.354 281.85C353.458 284.385 349.764 291.963 352.118 298.742C354.472 305.521 361.998 308.973 368.893 306.438C375.789 303.902 379.484 296.324 377.129 289.545Z" fill="black" stroke="black" stroke-width="1.30208"/>
<path d="M420.684 309.478C418.33 302.699 410.805 299.247 403.909 301.783C397.013 304.318 393.318 311.896 395.673 318.675C398.027 325.454 405.552 328.906 412.448 326.371C419.344 323.835 423.039 316.257 420.684 309.478Z" fill="black" stroke="black" stroke-width="1.30208"/>
<path d="M432.23 342.965C429.876 336.186 422.35 332.734 415.455 335.269C408.559 337.805 404.864 345.383 407.218 352.162C409.573 358.941 417.098 362.393 423.994 359.857C430.89 357.322 434.584 349.744 432.23 342.965Z" fill="black" stroke="black" stroke-width="1.30208"/>
<path d="M409.709 277.645C407.355 270.866 399.829 267.414 392.933 269.949C386.038 272.485 382.343 280.063 384.697 286.842C387.051 293.621 394.577 297.073 401.473 294.538C408.368 292.002 412.063 284.424 409.709 277.645Z" fill="black" stroke="black" stroke-width="1.30208"/>
<path d="M398.447 354.84C396.093 348.061 388.567 344.608 381.671 347.144C374.776 349.679 371.081 357.257 373.435 364.036C375.789 370.815 383.315 374.268 390.211 371.732C397.106 369.196 400.801 361.619 398.447 354.84Z" fill="black" stroke="black" stroke-width="1.30208"/>
<path d="M378.195 399.091C375.841 392.313 368.316 388.86 361.42 391.396C354.524 393.931 350.83 401.509 353.184 408.288C355.538 415.067 363.064 418.519 369.959 415.984C376.855 413.448 380.55 405.87 378.195 399.091Z" fill="black" stroke="black" stroke-width="1.30208"/>
<path d="M411.979 387.217C409.624 380.438 402.099 376.986 395.203 379.521C388.307 382.057 384.613 389.635 386.967 396.414C389.321 403.193 396.847 406.645 403.742 404.109C410.638 401.574 414.333 393.996 411.979 387.217Z" fill="black" stroke="black" stroke-width="1.30208"/>
<path d="M387.044 321.766C384.689 314.987 377.164 311.535 370.268 314.071C363.373 316.606 359.678 324.184 362.032 330.963C364.386 337.742 371.912 341.194 378.807 338.659C385.703 336.123 389.398 328.545 387.044 321.766Z" fill="black" stroke="black" stroke-width="1.30208"/>
<path d="M347.194 410.799C344.84 404.02 337.315 400.568 330.419 403.104C323.523 405.639 319.828 413.217 322.183 419.996C324.537 426.775 332.062 430.227 338.958 427.692C345.854 425.156 349.549 417.578 347.194 410.799Z" fill="black" stroke="black" stroke-width="1.30208"/>
<path d="M366.909 366.36C364.555 359.581 357.029 356.128 350.133 358.664C343.238 361.199 339.543 368.777 341.897 375.556C344.251 382.335 351.777 385.787 358.673 383.252C365.568 380.716 369.263 373.138 366.909 366.36Z" fill="black" stroke="black" stroke-width="1.30208"/>
<path d="M335.791 377.726C333.437 370.947 325.911 367.495 319.016 370.03C312.12 372.566 308.425 380.144 310.78 386.923C313.134 393.701 320.659 397.154 327.555 394.618C334.451 392.083 338.146 384.505 335.791 377.726Z" fill="black" stroke="black" stroke-width="1.30208"/>
<path d="M324.388 344.653C322.034 337.874 314.508 334.421 307.613 336.957C300.717 339.492 297.022 347.07 299.376 353.849C301.731 360.628 309.256 364.08 316.152 361.545C323.048 359.009 326.742 351.431 324.388 344.653Z" fill="black" stroke="black" stroke-width="1.30208"/>
<path d="M355.506 333.286C353.151 326.507 345.626 323.055 338.73 325.59C331.834 328.126 328.14 335.704 330.494 342.483C332.848 349.262 340.374 352.714 347.269 350.179C354.165 347.643 357.86 340.065 355.506 333.286Z" fill="black" stroke="black" stroke-width="1.30208"/>
<path d="M345.171 301.219C342.817 294.44 335.291 290.988 328.395 293.523C321.5 296.059 317.805 303.637 320.159 310.416C322.514 317.195 330.039 320.647 336.935 318.111C343.83 315.576 347.525 307.998 345.171 301.219Z" fill="black" stroke="black" stroke-width="1.30208"/>
<path d="M501.565 30.5215L501.095 30.3511L500.938 30.826L501.408 30.9964L501.565 30.5215ZM501.597 30.4253L502.067 30.5957L502.223 30.1208L501.753 29.9504L501.597 30.4253ZM419.606 0.712856L419.762 0.237974L419.292 0.0676577L419.136 0.542444L419.606 0.712856ZM405.561 43.285L405.091 43.1146L404.934 43.5895L405.404 43.7599L405.561 43.285ZM486.276 72.5351L486.746 72.7056L486.903 72.2306L486.432 72.0603L486.276 72.5351ZM459.215 154.561L458.745 154.39L458.588 154.865L459.058 155.035L459.215 154.561ZM502.534 170.259L502.377 170.734L502.847 170.904L503.004 170.429L502.534 170.259ZM543.608 45.7575L544.078 45.9279L544.235 45.453L543.765 45.2826L543.608 45.7575ZM502.035 30.6919L502.067 30.5957L501.127 30.2549L501.095 30.3511L502.035 30.6919ZM501.753 29.9504L419.762 0.237974L419.449 1.18774L501.44 30.9002L501.753 29.9504ZM419.136 0.542444L405.091 43.1146L406.031 43.4554L420.076 0.883268L419.136 0.542444ZM405.404 43.7599L486.119 73.01L486.432 72.0603L405.717 42.8101L405.404 43.7599ZM485.806 72.3647L458.745 154.39L459.685 154.731L486.746 72.7056L485.806 72.3647ZM459.058 155.035L502.377 170.734L502.691 169.784L459.371 154.086L459.058 155.035ZM503.004 170.429L544.078 45.9279L543.138 45.5871L502.064 170.088L503.004 170.429ZM543.765 45.2826L501.721 30.0466L501.408 30.9964L543.452 46.2324L543.765 45.2826Z" fill="url(#paint1_linear_6_820)"/>
<path d="M490.793 50.2057C493.676 41.4667 489.217 31.8912 480.854 28.8604C472.49 25.8296 463.34 30.4735 460.457 39.2125C457.574 47.9515 462.033 57.527 470.396 60.5578C478.76 63.5887 487.91 58.9447 490.793 50.2057Z" fill="black" stroke="black" stroke-width="1.30208"/>
<path d="M516.634 105.577C519.517 96.8383 515.058 87.2628 506.695 84.2319C498.331 81.2011 489.182 85.8451 486.298 94.5841C483.415 103.323 487.874 112.899 496.238 115.929C504.601 118.96 513.751 114.316 516.634 105.577Z" fill="black" stroke="black" stroke-width="1.30208"/>
<path d="M502.313 148.678C505.197 139.939 500.738 130.364 492.374 127.333C484.011 124.302 474.861 128.946 471.978 137.685C469.095 146.424 473.554 156 481.917 159.03C490.281 162.061 499.43 157.417 502.313 148.678Z" fill="black" stroke="black" stroke-width="1.30208"/>
<path d="M461.75 133.278C464.633 124.539 460.175 114.964 451.811 111.933C443.448 108.902 434.298 113.546 431.415 122.285C428.532 131.024 432.99 140.599 441.354 143.63C449.717 146.661 458.867 142.017 461.75 133.278Z" fill="black" stroke="black" stroke-width="1.30208"/>
<path d="M409.56 161.47C412.443 152.731 407.984 143.155 399.621 140.124C391.257 137.094 382.108 141.738 379.225 150.476C376.341 159.215 380.8 168.791 389.164 171.822C397.527 174.853 406.677 170.209 409.56 161.47Z" fill="black" stroke="black" stroke-width="1.30208"/>
<path d="M450.123 176.87C453.006 168.131 448.548 158.555 440.184 155.525C431.821 152.494 422.671 157.138 419.788 165.877C416.905 174.616 421.363 184.191 429.727 187.222C438.09 190.253 447.24 185.609 450.123 176.87Z" fill="black" stroke="black" stroke-width="1.30208"/>
<path d="M475.894 90.7091C478.777 81.9702 474.319 72.3946 465.955 69.3638C457.592 66.333 448.442 70.977 445.559 79.7159C442.676 88.4549 447.134 98.0304 455.498 101.061C463.861 104.092 473.011 99.4481 475.894 90.7091Z" fill="black" stroke="black" stroke-width="1.30208"/>
<path d="M371.728 148.155C374.611 139.416 370.153 129.841 361.789 126.81C353.426 123.779 344.276 128.423 341.393 137.162C338.51 145.901 342.968 155.476 351.332 158.507C359.695 161.538 368.845 156.894 371.728 148.155Z" fill="black" stroke="black" stroke-width="1.30208"/>
<path d="M423.557 119.339C426.44 110.6 421.981 101.025 413.618 97.9939C405.254 94.9631 396.104 99.6071 393.221 108.346C390.338 117.085 394.797 126.661 403.16 129.691C411.524 132.722 420.674 128.078 423.557 119.339Z" fill="black" stroke="black" stroke-width="1.30208"/>
<path d="M385.872 105.586C388.755 96.8473 384.297 87.2718 375.933 84.2409C367.57 81.2101 358.42 85.8541 355.537 94.5931C352.654 103.332 357.112 112.908 365.476 115.938C373.839 118.969 382.989 114.325 385.872 105.586Z" fill="black" stroke="black" stroke-width="1.30208"/>
<path d="M400.016 63.0174C402.899 54.2785 398.44 44.7029 390.077 41.6721C381.713 38.6413 372.564 43.2852 369.68 52.0242C366.797 60.7632 371.256 70.3387 379.62 73.3696C387.983 76.4004 397.133 71.7564 400.016 63.0174Z" fill="black" stroke="black" stroke-width="1.30208"/>
<path d="M437.7 76.7704C440.583 68.0314 436.125 58.4559 427.761 55.4251C419.398 52.3943 410.248 57.0382 407.365 65.7772C404.482 74.5162 408.941 84.0917 417.304 87.1225C425.667 90.1534 434.817 85.5094 437.7 76.7704Z" fill="black" stroke="black" stroke-width="1.30208"/>
<path d="M452.09 36.081C454.973 27.3421 450.514 17.7665 442.151 14.7357C433.787 11.7049 424.637 16.3488 421.754 25.0878C418.871 33.8268 423.33 43.4023 431.693 46.4332C440.057 49.464 449.207 44.82 452.09 36.081Z" fill="black" stroke="black" stroke-width="1.30208"/>
<defs>
<linearGradient id="paint0_linear_6_820" x1="350.397" y1="254.735" x2="393.733" y2="373.891" gradientUnits="userSpaceOnUse">
<stop stop-color="#175F41"/>
<stop offset="1" stop-color="#C45093"/>
</linearGradient>
<linearGradient id="paint1_linear_6_820" x1="491.879" y1="-6.53251" x2="435.937" y2="146.058" gradientUnits="userSpaceOnUse">
<stop stop-color="#175F41"/>
<stop offset="1" stop-color="#C45093"/>
</linearGradient>
<clipPath id="clip0_6_820">
<rect width="431" height="553" fill="white" transform="matrix(0 1 -1 0 553 1)"/>
</clipPath>
</defs>
</svg>
