<svg width="328" height="100" viewBox="0 0 328 100" fill="none" xmlns="http://www.w3.org/2000/svg">
<rect width="328" height="100" rx="20" fill="#1E1E1E"/>
<path d="M81.4499 63H72.9741V36.8182H81.7184C84.2837 36.8182 86.4869 37.3423 88.3278 38.3906C90.1687 39.4304 91.5792 40.9261 92.5593 42.8778C93.5479 44.821 94.0423 47.152 94.0423 49.8707C94.0423 52.598 93.5437 54.9418 92.5465 56.902C91.5579 58.8622 90.1261 60.3707 88.2511 61.4276C86.3761 62.4759 84.109 63 81.4499 63ZM76.9244 59.5483H81.2326C83.2269 59.5483 84.8846 59.1733 86.2056 58.4233C87.5266 57.6648 88.5153 56.5696 89.1715 55.1378C89.8278 53.6974 90.1559 51.9418 90.1559 49.8707C90.1559 47.8168 89.8278 46.0739 89.1715 44.642C88.5238 43.2102 87.5565 42.1236 86.2695 41.3821C84.9826 40.6406 83.3846 40.2699 81.4755 40.2699H76.9244V59.5483ZM104.362 63.4347C103.118 63.4347 101.993 63.2045 100.987 62.7443C99.9815 62.2756 99.1847 61.598 98.5966 60.7116C98.017 59.8253 97.7273 58.7386 97.7273 57.4517C97.7273 56.3437 97.9403 55.4318 98.3665 54.7159C98.7926 54 99.3679 53.4332 100.092 53.0156C100.817 52.598 101.626 52.2827 102.521 52.0696C103.416 51.8565 104.328 51.6946 105.257 51.5838C106.433 51.4474 107.388 51.3366 108.121 51.2514C108.854 51.1577 109.386 51.0085 109.719 50.804C110.051 50.5994 110.217 50.267 110.217 49.8068V49.7173C110.217 48.6009 109.902 47.7358 109.271 47.1222C108.649 46.5085 107.72 46.2017 106.484 46.2017C105.197 46.2017 104.183 46.4872 103.442 47.0582C102.709 47.6207 102.202 48.2472 101.92 48.9375L98.3281 48.1193C98.7543 46.9261 99.3764 45.9631 100.195 45.2301C101.021 44.4886 101.972 43.9517 103.045 43.6193C104.119 43.2784 105.249 43.108 106.433 43.108C107.217 43.108 108.048 43.2017 108.926 43.3892C109.813 43.5682 110.639 43.9006 111.406 44.3864C112.182 44.8722 112.817 45.5668 113.311 46.4702C113.805 47.3651 114.053 48.5284 114.053 49.9602V63H110.32V60.3153H110.166C109.919 60.8097 109.548 61.2955 109.054 61.7727C108.56 62.25 107.925 62.6463 107.149 62.9616C106.374 63.277 105.445 63.4347 104.362 63.4347ZM105.193 60.3665C106.25 60.3665 107.153 60.1577 107.903 59.7401C108.662 59.3224 109.237 58.777 109.629 58.1037C110.03 57.4219 110.23 56.6932 110.23 55.9176V53.3864C110.094 53.5227 109.83 53.6506 109.438 53.7699C109.054 53.8807 108.615 53.9787 108.121 54.0639C107.626 54.1406 107.145 54.2131 106.676 54.2812C106.207 54.3409 105.815 54.392 105.5 54.4347C104.759 54.5284 104.081 54.6861 103.467 54.9077C102.862 55.1293 102.376 55.4489 102.01 55.8665C101.652 56.2756 101.473 56.821 101.473 57.5028C101.473 58.4489 101.822 59.1648 102.521 59.6506C103.22 60.1278 104.111 60.3665 105.193 60.3665ZM133.858 48.1577L130.394 48.7713C130.249 48.3281 130.019 47.9062 129.703 47.5057C129.397 47.1051 128.979 46.777 128.451 46.5213C127.922 46.2656 127.262 46.1378 126.469 46.1378C125.387 46.1378 124.483 46.3807 123.759 46.8665C123.034 47.3437 122.672 47.9616 122.672 48.7202C122.672 49.3764 122.915 49.9048 123.401 50.3054C123.887 50.706 124.671 51.0341 125.753 51.2898L128.873 52.0057C130.679 52.4233 132.026 53.0668 132.912 53.9361C133.799 54.8054 134.242 55.9347 134.242 57.3239C134.242 58.5 133.901 59.5483 133.219 60.4688C132.546 61.3807 131.604 62.0966 130.394 62.6165C129.192 63.1364 127.799 63.3963 126.213 63.3963C124.015 63.3963 122.221 62.9276 120.831 61.9901C119.442 61.044 118.59 59.7017 118.275 57.9631L121.969 57.4006C122.199 58.3636 122.672 59.0923 123.388 59.5866C124.104 60.0724 125.037 60.3153 126.188 60.3153C127.441 60.3153 128.442 60.0554 129.192 59.5355C129.942 59.0071 130.317 58.3636 130.317 57.6051C130.317 56.9915 130.087 56.4759 129.627 56.0582C129.175 55.6406 128.48 55.3253 127.543 55.1122L124.219 54.3835C122.387 53.9659 121.032 53.3011 120.154 52.3892C119.284 51.4773 118.85 50.3224 118.85 48.9247C118.85 47.7656 119.174 46.7514 119.821 45.8821C120.469 45.0128 121.364 44.3352 122.506 43.8494C123.648 43.3551 124.956 43.108 126.431 43.108C128.553 43.108 130.223 43.5682 131.442 44.4886C132.661 45.4006 133.466 46.6236 133.858 48.1577ZM142.267 51.3409V63H138.445V36.8182H142.216V46.5597H142.459C142.919 45.5028 143.622 44.6634 144.568 44.0412C145.514 43.419 146.75 43.108 148.276 43.108C149.622 43.108 150.798 43.3849 151.804 43.9389C152.818 44.4929 153.602 45.3196 154.156 46.419C154.719 47.5099 155 48.8736 155 50.5099V63H151.178V50.9702C151.178 49.5298 150.807 48.4134 150.065 47.6207C149.324 46.8196 148.293 46.419 146.972 46.419C146.068 46.419 145.259 46.6108 144.543 46.9943C143.835 47.3778 143.277 47.9403 142.868 48.6818C142.467 49.4148 142.267 50.3011 142.267 51.3409ZM160.408 63V36.8182H164.23V46.5469H164.46C164.682 46.1378 165.001 45.6648 165.419 45.1278C165.837 44.5909 166.416 44.1222 167.158 43.7216C167.899 43.3125 168.879 43.108 170.098 43.108C171.683 43.108 173.098 43.5085 174.342 44.3097C175.587 45.1108 176.563 46.2656 177.27 47.7741C177.986 49.2827 178.344 51.098 178.344 53.2202C178.344 55.3423 177.99 57.1619 177.283 58.679C176.575 60.1875 175.604 61.3509 174.368 62.169C173.132 62.9787 171.722 63.3835 170.136 63.3835C168.943 63.3835 167.967 63.1832 167.209 62.7827C166.459 62.3821 165.871 61.9134 165.445 61.3764C165.018 60.8395 164.69 60.3622 164.46 59.9446H164.141V63H160.408ZM164.153 53.1818C164.153 54.5625 164.354 55.7727 164.754 56.8125C165.155 57.8523 165.734 58.6662 166.493 59.2543C167.251 59.8338 168.18 60.1236 169.28 60.1236C170.422 60.1236 171.376 59.821 172.143 59.2159C172.911 58.6023 173.49 57.7713 173.882 56.723C174.283 55.6747 174.483 54.4943 174.483 53.1818C174.483 51.8864 174.287 50.723 173.895 49.6918C173.511 48.6605 172.932 47.8466 172.156 47.25C171.389 46.6534 170.43 46.3551 169.28 46.3551C168.172 46.3551 167.234 46.6406 166.467 47.2116C165.709 47.7827 165.134 48.5795 164.741 49.6023C164.349 50.625 164.153 51.8182 164.153 53.1818ZM190.907 63.3963C189.066 63.3963 187.46 62.9744 186.088 62.1307C184.716 61.2869 183.65 60.1065 182.892 58.5895C182.133 57.0724 181.754 55.2997 181.754 53.2713C181.754 51.2344 182.133 49.4531 182.892 47.9276C183.65 46.402 184.716 45.2173 186.088 44.3736C187.46 43.5298 189.066 43.108 190.907 43.108C192.748 43.108 194.355 43.5298 195.727 44.3736C197.099 45.2173 198.164 46.402 198.923 47.9276C199.681 49.4531 200.061 51.2344 200.061 53.2713C200.061 55.2997 199.681 57.0724 198.923 58.5895C198.164 60.1065 197.099 61.2869 195.727 62.1307C194.355 62.9744 192.748 63.3963 190.907 63.3963ZM190.92 60.1875C192.113 60.1875 193.102 59.8722 193.886 59.2415C194.67 58.6108 195.25 57.7713 195.625 56.723C196.008 55.6747 196.2 54.5199 196.2 53.2585C196.2 52.0057 196.008 50.8551 195.625 49.8068C195.25 48.75 194.67 47.902 193.886 47.2628C193.102 46.6236 192.113 46.304 190.92 46.304C189.718 46.304 188.721 46.6236 187.929 47.2628C187.145 47.902 186.561 48.75 186.177 49.8068C185.802 50.8551 185.615 52.0057 185.615 53.2585C185.615 54.5199 185.802 55.6747 186.177 56.723C186.561 57.7713 187.145 58.6108 187.929 59.2415C188.721 59.8722 189.718 60.1875 190.92 60.1875ZM210.042 63.4347C208.798 63.4347 207.673 63.2045 206.667 62.7443C205.661 62.2756 204.864 61.598 204.276 60.7116C203.697 59.8253 203.407 58.7386 203.407 57.4517C203.407 56.3437 203.62 55.4318 204.046 54.7159C204.472 54 205.048 53.4332 205.772 53.0156C206.496 52.598 207.306 52.2827 208.201 52.0696C209.096 51.8565 210.008 51.6946 210.937 51.5838C212.113 51.4474 213.067 51.3366 213.8 51.2514C214.533 51.1577 215.066 51.0085 215.398 50.804C215.731 50.5994 215.897 50.267 215.897 49.8068V49.7173C215.897 48.6009 215.582 47.7358 214.951 47.1222C214.329 46.5085 213.4 46.2017 212.164 46.2017C210.877 46.2017 209.863 46.4872 209.121 47.0582C208.388 47.6207 207.881 48.2472 207.6 48.9375L204.008 48.1193C204.434 46.9261 205.056 45.9631 205.874 45.2301C206.701 44.4886 207.651 43.9517 208.725 43.6193C209.799 43.2784 210.928 43.108 212.113 43.108C212.897 43.108 213.728 43.2017 214.606 43.3892C215.492 43.5682 216.319 43.9006 217.086 44.3864C217.862 44.8722 218.496 45.5668 218.991 46.4702C219.485 47.3651 219.732 48.5284 219.732 49.9602V63H215.999V60.3153H215.846C215.599 60.8097 215.228 61.2955 214.734 61.7727C214.239 62.25 213.604 62.6463 212.829 62.9616C212.053 63.277 211.124 63.4347 210.042 63.4347ZM210.873 60.3665C211.93 60.3665 212.833 60.1577 213.583 59.7401C214.342 59.3224 214.917 58.777 215.309 58.1037C215.71 57.4219 215.91 56.6932 215.91 55.9176V53.3864C215.773 53.5227 215.509 53.6506 215.117 53.7699C214.734 53.8807 214.295 53.9787 213.8 54.0639C213.306 54.1406 212.825 54.2131 212.356 54.2812C211.887 54.3409 211.495 54.392 211.18 54.4347C210.438 54.5284 209.761 54.6861 209.147 54.9077C208.542 55.1293 208.056 55.4489 207.69 55.8665C207.332 56.2756 207.153 56.821 207.153 57.5028C207.153 58.4489 207.502 59.1648 208.201 59.6506C208.9 60.1278 209.79 60.3665 210.873 60.3665ZM224.824 63V43.3636H228.518V46.483H228.723C229.081 45.4261 229.711 44.5952 230.615 43.9901C231.527 43.3764 232.558 43.0696 233.708 43.0696C233.947 43.0696 234.228 43.0781 234.552 43.0952C234.885 43.1122 235.145 43.1335 235.332 43.1591V46.8153C235.179 46.7727 234.906 46.7259 234.514 46.6747C234.122 46.6151 233.73 46.5852 233.338 46.5852C232.434 46.5852 231.629 46.777 230.922 47.1605C230.223 47.5355 229.669 48.0597 229.26 48.733C228.85 49.3977 228.646 50.1562 228.646 51.0085V63H224.824ZM245.288 63.3835C243.702 63.3835 242.288 62.9787 241.043 62.169C239.808 61.3509 238.836 60.1875 238.129 58.679C237.43 57.1619 237.08 55.3423 237.08 53.2202C237.08 51.098 237.434 49.2827 238.141 47.7741C238.857 46.2656 239.837 45.1108 241.082 44.3097C242.326 43.5085 243.737 43.108 245.313 43.108C246.532 43.108 247.512 43.3125 248.254 43.7216C249.004 44.1222 249.583 44.5909 249.992 45.1278C250.41 45.6648 250.734 46.1378 250.964 46.5469H251.194V36.8182H255.016V63H251.283V59.9446H250.964C250.734 60.3622 250.401 60.8395 249.967 61.3764C249.54 61.9134 248.952 62.3821 248.202 62.7827C247.452 63.1832 246.481 63.3835 245.288 63.3835ZM246.131 60.1236C247.231 60.1236 248.16 59.8338 248.918 59.2543C249.685 58.6662 250.265 57.8523 250.657 56.8125C251.058 55.7727 251.258 54.5625 251.258 53.1818C251.258 51.8182 251.062 50.625 250.67 49.6023C250.278 48.5795 249.702 47.7827 248.944 47.2116C248.185 46.6406 247.248 46.3551 246.131 46.3551C244.981 46.3551 244.022 46.6534 243.255 47.25C242.488 47.8466 241.908 48.6605 241.516 49.6918C241.133 50.723 240.941 51.8864 240.941 53.1818C240.941 54.4943 241.137 55.6747 241.529 56.723C241.921 57.7713 242.501 58.6023 243.268 59.2159C244.043 59.821 244.998 60.1236 246.131 60.1236Z" fill="white"/>
<path d="M65.9956 45C64.8904 45 63.9919 45.9749 63.9919 47.1724C63.9919 47.4636 64.0467 47.7411 64.1431 47.9954L58.2117 53.9809C57.894 53.7507 57.5131 53.6153 57.103 53.6153C56.8949 53.6153 56.6937 53.6522 56.5008 53.7184L54.6053 51.1292C54.7469 50.8275 54.8301 50.4966 54.8301 50.1483C54.8301 48.9507 53.9316 47.9758 52.8264 47.9758C51.7212 47.9758 50.8227 48.9507 50.8227 50.1483C50.8227 50.2581 50.8414 50.3634 50.856 50.4702L46.0722 54.5375C45.7621 54.3247 45.3978 54.196 45.0037 54.196C43.8985 54.196 43 55.1709 43 56.3685C43 57.5668 43.8985 58.5417 45.0037 58.5417C46.109 58.5417 47.0074 57.5668 47.0074 56.3685C47.0074 56.1473 46.9679 55.9374 46.911 55.7366L51.5366 51.8039C51.5491 51.8152 51.5581 51.8303 51.5706 51.8408C51.9252 52.1507 52.3713 52.3215 52.8271 52.3215C53.0921 52.3215 53.3495 52.265 53.5875 52.159L55.4102 54.6489C55.2159 54.9874 55.0993 55.3748 55.0993 55.7877C55.0993 56.9861 55.9978 57.9609 57.103 57.9609C58.2076 57.9609 59.1068 56.9861 59.1068 55.7877C59.1068 55.5877 59.0735 55.3981 59.027 55.2145L65.0881 49.0989C65.3621 49.2516 65.6674 49.3456 65.9963 49.3456C67.1008 49.3456 68 48.3707 68 47.1732C68 45.9756 67.1008 45 65.9956 45ZM45.0037 57.0357C44.6638 57.0357 44.3876 56.7363 44.3876 56.367C44.3876 55.9991 44.6638 55.699 45.0037 55.699C45.3437 55.699 45.6198 55.9984 45.6198 56.367C45.6205 56.7363 45.3437 57.0357 45.0037 57.0357ZM52.4413 50.6688C52.295 50.5402 52.2103 50.3506 52.2103 50.1475C52.2103 49.7797 52.4864 49.4795 52.8264 49.4795C53.1664 49.4795 53.4425 49.7789 53.4425 50.1475C53.4425 50.3258 53.3787 50.4935 53.2628 50.6192V50.6199H53.2621C53.0179 50.8832 52.5884 50.7967 52.4413 50.6688ZM57.103 56.4557C56.7631 56.4557 56.4869 56.1563 56.4869 55.787C56.4869 55.5779 56.5744 55.3861 56.7284 55.2574C56.7312 55.2552 56.7353 55.2544 56.7381 55.2514L56.7388 55.2507C56.8144 55.1897 56.9358 55.119 57.1037 55.119C57.443 55.119 57.7198 55.4184 57.7198 55.787C57.7191 56.1556 57.443 56.4557 57.103 56.4557ZM65.9956 47.8404C65.6556 47.8404 65.3795 47.541 65.3795 47.1724C65.3795 46.8039 65.6556 46.5045 65.9956 46.5045C66.3349 46.5045 66.6117 46.8039 66.6117 47.1724C66.6117 47.541 66.3356 47.8404 65.9956 47.8404Z" fill="#E967CD"/>
</svg>
