<svg width="328" height="100" viewBox="0 0 328 100" fill="none" xmlns="http://www.w3.org/2000/svg">
<rect width="328" height="100" rx="20" fill="#1E1E1E"/>
<path d="M129.352 62H120.876V35.8182H129.621C132.186 35.8182 134.389 36.3423 136.23 37.3906C138.071 38.4304 139.482 39.9261 140.462 41.8778C141.45 43.821 141.945 46.152 141.945 48.8707C141.945 51.598 141.446 53.9418 140.449 55.902C139.46 57.8622 138.028 59.3707 136.153 60.4276C134.278 61.4759 132.011 62 129.352 62ZM124.827 58.5483H129.135C131.129 58.5483 132.787 58.1733 134.108 57.4233C135.429 56.6648 136.418 55.5696 137.074 54.1378C137.73 52.6974 138.058 50.9418 138.058 48.8707C138.058 46.8168 137.73 45.0739 137.074 43.642C136.426 42.2102 135.459 41.1236 134.172 40.3821C132.885 39.6406 131.287 39.2699 129.378 39.2699H124.827V58.5483ZM152.265 62.4347C151.02 62.4347 149.895 62.2045 148.89 61.7443C147.884 61.2756 147.087 60.598 146.499 59.7116C145.919 58.8253 145.63 57.7386 145.63 56.4517C145.63 55.3437 145.843 54.4318 146.269 53.7159C146.695 53 147.27 52.4332 147.995 52.0156C148.719 51.598 149.529 51.2827 150.424 51.0696C151.319 50.8565 152.23 50.6946 153.159 50.5838C154.336 50.4474 155.29 50.3366 156.023 50.2514C156.756 50.1577 157.289 50.0085 157.621 49.804C157.953 49.5994 158.12 49.267 158.12 48.8068V48.7173C158.12 47.6009 157.804 46.7358 157.174 46.1222C156.551 45.5085 155.623 45.2017 154.387 45.2017C153.1 45.2017 152.086 45.4872 151.344 46.0582C150.611 46.6207 150.104 47.2472 149.823 47.9375L146.23 47.1193C146.657 45.9261 147.279 44.9631 148.097 44.2301C148.924 43.4886 149.874 42.9517 150.948 42.6193C152.022 42.2784 153.151 42.108 154.336 42.108C155.12 42.108 155.951 42.2017 156.828 42.3892C157.715 42.5682 158.542 42.9006 159.309 43.3864C160.084 43.8722 160.719 44.5668 161.213 45.4702C161.708 46.3651 161.955 47.5284 161.955 48.9602V62H158.222V59.3153H158.069C157.821 59.8097 157.451 60.2955 156.956 60.7727C156.462 61.25 155.827 61.6463 155.051 61.9616C154.276 62.277 153.347 62.4347 152.265 62.4347ZM153.096 59.3665C154.152 59.3665 155.056 59.1577 155.806 58.7401C156.564 58.3224 157.14 57.777 157.532 57.1037C157.932 56.4219 158.132 55.6932 158.132 54.9176V52.3864C157.996 52.5227 157.732 52.6506 157.34 52.7699C156.956 52.8807 156.517 52.9787 156.023 53.0639C155.529 53.1406 155.047 53.2131 154.578 53.2812C154.11 53.3409 153.718 53.392 153.402 53.4347C152.661 53.5284 151.983 53.6861 151.37 53.9077C150.765 54.1293 150.279 54.4489 149.912 54.8665C149.554 55.2756 149.375 55.821 149.375 56.5028C149.375 57.4489 149.725 58.1648 150.424 58.6506C151.123 59.1278 152.013 59.3665 153.096 59.3665ZM181.761 47.1577L178.296 47.7713C178.151 47.3281 177.921 46.9062 177.606 46.5057C177.299 46.1051 176.881 45.777 176.353 45.5213C175.825 45.2656 175.164 45.1378 174.371 45.1378C173.289 45.1378 172.386 45.3807 171.661 45.8665C170.937 46.3437 170.575 46.9616 170.575 47.7202C170.575 48.3764 170.817 48.9048 171.303 49.3054C171.789 49.706 172.573 50.0341 173.656 50.2898L176.775 51.0057C178.582 51.4233 179.928 52.0668 180.815 52.9361C181.701 53.8054 182.144 54.9347 182.144 56.3239C182.144 57.5 181.803 58.5483 181.121 59.4688C180.448 60.3807 179.506 61.0966 178.296 61.6165C177.094 62.1364 175.701 62.3963 174.116 62.3963C171.917 62.3963 170.123 61.9276 168.734 60.9901C167.344 60.044 166.492 58.7017 166.177 56.9631L169.871 56.4006C170.102 57.3636 170.575 58.0923 171.29 58.5866C172.006 59.0724 172.94 59.3153 174.09 59.3153C175.343 59.3153 176.344 59.0554 177.094 58.5355C177.844 58.0071 178.219 57.3636 178.219 56.6051C178.219 55.9915 177.989 55.4759 177.529 55.0582C177.077 54.6406 176.383 54.3253 175.445 54.1122L172.121 53.3835C170.289 52.9659 168.934 52.3011 168.056 51.3892C167.187 50.4773 166.752 49.3224 166.752 47.9247C166.752 46.7656 167.076 45.7514 167.724 44.8821C168.371 44.0128 169.266 43.3352 170.408 42.8494C171.55 42.3551 172.859 42.108 174.333 42.108C176.455 42.108 178.126 42.5682 179.344 43.4886C180.563 44.4006 181.369 45.6236 181.761 47.1577ZM190.169 50.3409V62H186.347V35.8182H190.118V45.5597H190.361C190.821 44.5028 191.525 43.6634 192.471 43.0412C193.417 42.419 194.652 42.108 196.178 42.108C197.525 42.108 198.701 42.3849 199.706 42.9389C200.721 43.4929 201.505 44.3196 202.059 45.419C202.621 46.5099 202.902 47.8736 202.902 49.5099V62H199.08V49.9702C199.08 48.5298 198.709 47.4134 197.968 46.6207C197.226 45.8196 196.195 45.419 194.874 45.419C193.971 45.419 193.161 45.6108 192.445 45.9943C191.738 46.3778 191.179 46.9403 190.77 47.6818C190.37 48.4148 190.169 49.3011 190.169 50.3409ZM208.31 62V35.8182H212.132V45.5469H212.363C212.584 45.1378 212.904 44.6648 213.321 44.1278C213.739 43.5909 214.319 43.1222 215.06 42.7216C215.801 42.3125 216.782 42.108 218 42.108C219.586 42.108 221 42.5085 222.245 43.3097C223.489 44.1108 224.465 45.2656 225.172 46.7741C225.888 48.2827 226.246 50.098 226.246 52.2202C226.246 54.3423 225.892 56.1619 225.185 57.679C224.478 59.1875 223.506 60.3509 222.27 61.169C221.034 61.9787 219.624 62.3835 218.039 62.3835C216.846 62.3835 215.87 62.1832 215.111 61.7827C214.361 61.3821 213.773 60.9134 213.347 60.3764C212.921 59.8395 212.593 59.3622 212.363 58.9446H212.043V62H208.31ZM212.056 52.1818C212.056 53.5625 212.256 54.7727 212.657 55.8125C213.057 56.8523 213.637 57.6662 214.395 58.2543C215.154 58.8338 216.083 59.1236 217.182 59.1236C218.324 59.1236 219.279 58.821 220.046 58.2159C220.813 57.6023 221.392 56.7713 221.784 55.723C222.185 54.6747 222.385 53.4943 222.385 52.1818C222.385 50.8864 222.189 49.723 221.797 48.6918C221.414 47.6605 220.834 46.8466 220.059 46.25C219.292 45.6534 218.333 45.3551 217.182 45.3551C216.074 45.3551 215.137 45.6406 214.37 46.2116C213.611 46.7827 213.036 47.5795 212.644 48.6023C212.252 49.625 212.056 50.8182 212.056 52.1818ZM238.81 62.3963C236.969 62.3963 235.362 61.9744 233.99 61.1307C232.618 60.2869 231.553 59.1065 230.794 57.5895C230.036 56.0724 229.656 54.2997 229.656 52.2713C229.656 50.2344 230.036 48.4531 230.794 46.9276C231.553 45.402 232.618 44.2173 233.99 43.3736C235.362 42.5298 236.969 42.108 238.81 42.108C240.651 42.108 242.257 42.5298 243.629 43.3736C245.001 44.2173 246.067 45.402 246.825 46.9276C247.584 48.4531 247.963 50.2344 247.963 52.2713C247.963 54.2997 247.584 56.0724 246.825 57.5895C246.067 59.1065 245.001 60.2869 243.629 61.1307C242.257 61.9744 240.651 62.3963 238.81 62.3963ZM238.822 59.1875C240.016 59.1875 241.004 58.8722 241.788 58.2415C242.572 57.6108 243.152 56.7713 243.527 55.723C243.911 54.6747 244.102 53.5199 244.102 52.2585C244.102 51.0057 243.911 49.8551 243.527 48.8068C243.152 47.75 242.572 46.902 241.788 46.2628C241.004 45.6236 240.016 45.304 238.822 45.304C237.621 45.304 236.624 45.6236 235.831 46.2628C235.047 46.902 234.463 47.75 234.08 48.8068C233.705 49.8551 233.517 51.0057 233.517 52.2585C233.517 53.5199 233.705 54.6747 234.08 55.723C234.463 56.7713 235.047 57.6108 235.831 58.2415C236.624 58.8722 237.621 59.1875 238.822 59.1875ZM257.944 62.4347C256.7 62.4347 255.575 62.2045 254.569 61.7443C253.564 61.2756 252.767 60.598 252.179 59.7116C251.599 58.8253 251.309 57.7386 251.309 56.4517C251.309 55.3437 251.522 54.4318 251.949 53.7159C252.375 53 252.95 52.4332 253.674 52.0156C254.399 51.598 255.208 51.2827 256.103 51.0696C256.998 50.8565 257.91 50.6946 258.839 50.5838C260.015 50.4474 260.97 50.3366 261.703 50.2514C262.436 50.1577 262.968 50.0085 263.301 49.804C263.633 49.5994 263.799 49.267 263.799 48.8068V48.7173C263.799 47.6009 263.484 46.7358 262.853 46.1222C262.231 45.5085 261.302 45.2017 260.066 45.2017C258.779 45.2017 257.765 45.4872 257.024 46.0582C256.291 46.6207 255.784 47.2472 255.502 47.9375L251.91 47.1193C252.336 45.9261 252.958 44.9631 253.777 44.2301C254.603 43.4886 255.554 42.9517 256.627 42.6193C257.701 42.2784 258.831 42.108 260.015 42.108C260.799 42.108 261.63 42.2017 262.508 42.3892C263.395 42.5682 264.221 42.9006 264.988 43.3864C265.764 43.8722 266.399 44.5668 266.893 45.4702C267.387 46.3651 267.635 47.5284 267.635 48.9602V62H263.902V59.3153H263.748C263.501 59.8097 263.13 60.2955 262.636 60.7727C262.142 61.25 261.507 61.6463 260.731 61.9616C259.956 62.277 259.027 62.4347 257.944 62.4347ZM258.775 59.3665C259.832 59.3665 260.735 59.1577 261.485 58.7401C262.244 58.3224 262.819 57.777 263.211 57.1037C263.612 56.4219 263.812 55.6932 263.812 54.9176V52.3864C263.676 52.5227 263.412 52.6506 263.02 52.7699C262.636 52.8807 262.197 52.9787 261.703 53.0639C261.208 53.1406 260.727 53.2131 260.258 53.2812C259.789 53.3409 259.397 53.392 259.082 53.4347C258.341 53.5284 257.663 53.6861 257.049 53.9077C256.444 54.1293 255.958 54.4489 255.592 54.8665C255.234 55.2756 255.055 55.821 255.055 56.5028C255.055 57.4489 255.404 58.1648 256.103 58.6506C256.802 59.1278 257.693 59.3665 258.775 59.3665ZM272.726 62V42.3636H276.42V45.483H276.625C276.983 44.4261 277.614 43.5952 278.517 42.9901C279.429 42.3764 280.46 42.0696 281.611 42.0696C281.849 42.0696 282.131 42.0781 282.455 42.0952C282.787 42.1122 283.047 42.1335 283.234 42.1591V45.8153C283.081 45.7727 282.808 45.7259 282.416 45.6747C282.024 45.6151 281.632 45.5852 281.24 45.5852C280.337 45.5852 279.531 45.777 278.824 46.1605C278.125 46.5355 277.571 47.0597 277.162 47.733C276.753 48.3977 276.548 49.1562 276.548 50.0085V62H272.726ZM293.19 62.3835C291.605 62.3835 290.19 61.9787 288.946 61.169C287.71 60.3509 286.738 59.1875 286.031 57.679C285.332 56.1619 284.983 54.3423 284.983 52.2202C284.983 50.098 285.336 48.2827 286.044 46.7741C286.76 45.2656 287.74 44.1108 288.984 43.3097C290.228 42.5085 291.639 42.108 293.216 42.108C294.434 42.108 295.414 42.3125 296.156 42.7216C296.906 43.1222 297.485 43.5909 297.895 44.1278C298.312 44.6648 298.636 45.1378 298.866 45.5469H299.096V35.8182H302.919V62H299.186V58.9446H298.866C298.636 59.3622 298.304 59.8395 297.869 60.3764C297.443 60.9134 296.855 61.3821 296.105 61.7827C295.355 62.1832 294.383 62.3835 293.19 62.3835ZM294.034 59.1236C295.133 59.1236 296.062 58.8338 296.821 58.2543C297.588 57.6662 298.167 56.8523 298.559 55.8125C298.96 54.7727 299.16 53.5625 299.16 52.1818C299.16 50.8182 298.964 49.625 298.572 48.6023C298.18 47.5795 297.605 46.7827 296.846 46.2116C296.088 45.6406 295.15 45.3551 294.034 45.3551C292.883 45.3551 291.924 45.6534 291.157 46.25C290.39 46.8466 289.811 47.6605 289.419 48.6918C289.035 49.723 288.843 50.8864 288.843 52.1818C288.843 53.4943 289.039 54.6747 289.431 55.723C289.824 56.7713 290.403 57.6023 291.17 58.2159C291.946 58.821 292.9 59.1236 294.034 59.1236Z" fill="white"/>
<path d="M88.0784 36.7216C85.5296 36.7216 83.4576 38.7952 83.4576 41.3424C83.4576 41.9616 83.584 42.552 83.8064 43.0928L70.128 55.824C69.3952 55.3344 68.5168 55.0464 67.5712 55.0464C67.0912 55.0464 66.6272 55.1248 66.1824 55.2656L61.8112 49.7584C62.1376 49.1168 62.3296 48.4128 62.3296 47.672C62.3296 45.1248 60.2576 43.0512 57.7088 43.0512C55.16 43.0512 53.088 45.1248 53.088 47.672C53.088 47.9056 53.1312 48.1296 53.1648 48.3568L42.1328 57.008C41.4176 56.5552 40.5776 56.2816 39.6688 56.2816C37.12 56.2816 35.048 58.3552 35.048 60.9024C35.048 63.4512 37.12 65.5248 39.6688 65.5248C42.2176 65.5248 44.2896 63.4512 44.2896 60.9024C44.2896 60.432 44.1984 59.9856 44.0672 59.5584L54.7344 51.1936C54.7632 51.2176 54.784 51.2496 54.8128 51.272C55.6304 51.9312 56.6592 52.2944 57.7104 52.2944C58.3216 52.2944 58.9152 52.1744 59.464 51.9488L63.6672 57.2448C63.2192 57.9648 62.9504 58.7888 62.9504 59.6672C62.9504 62.216 65.0224 64.2896 67.5712 64.2896C70.1184 64.2896 72.192 62.216 72.192 59.6672C72.192 59.2416 72.1152 58.8384 72.008 58.448L85.9856 45.44C86.6176 45.7648 87.3216 45.9648 88.08 45.9648C90.6272 45.9648 92.7008 43.8912 92.7008 41.344C92.7008 38.7968 90.6272 36.7216 88.0784 36.7216ZM39.6688 62.3216C38.8848 62.3216 38.248 61.6848 38.248 60.8992C38.248 60.1168 38.8848 59.4784 39.6688 59.4784C40.4528 59.4784 41.0896 60.1152 41.0896 60.8992C41.0912 61.6848 40.4528 62.3216 39.6688 62.3216ZM56.8208 48.7792C56.4832 48.5056 56.288 48.1024 56.288 47.6704C56.288 46.888 56.9248 46.2496 57.7088 46.2496C58.4928 46.2496 59.1296 46.8864 59.1296 47.6704C59.1296 48.0496 58.9824 48.4064 58.7152 48.6736V48.6752H58.7136C58.1504 49.2352 57.16 49.0512 56.8208 48.7792ZM67.5712 61.088C66.7872 61.088 66.1504 60.4512 66.1504 59.6656C66.1504 59.2208 66.352 58.8128 66.7072 58.5392C66.7136 58.5344 66.7232 58.5328 66.7296 58.5264L66.7312 58.5248C66.9056 58.3952 67.1856 58.2448 67.5728 58.2448C68.3552 58.2448 68.9936 58.8816 68.9936 59.6656C68.992 60.4496 68.3552 61.088 67.5712 61.088ZM88.0784 42.7632C87.2944 42.7632 86.6576 42.1264 86.6576 41.3424C86.6576 40.5584 87.2944 39.9216 88.0784 39.9216C88.8608 39.9216 89.4992 40.5584 89.4992 41.3424C89.4992 42.1264 88.8624 42.7632 88.0784 42.7632Z" fill="#E967CD"/>
</svg>
