<svg width="390" height="105" viewBox="0 0 390 105" fill="none" xmlns="http://www.w3.org/2000/svg">
<rect width="328" height="100" rx="20" fill="#1E1E1E"/>
<path d="M139.352 63H130.876V36.8182H139.621C142.186 36.8182 144.389 37.3423 146.23 38.3906C148.071 39.4304 149.482 40.9261 150.462 42.8778C151.45 44.821 151.945 47.152 151.945 49.8707C151.945 52.598 151.446 54.9418 150.449 56.902C149.46 58.8622 148.028 60.3707 146.153 61.4276C144.278 62.4759 142.011 63 139.352 63ZM134.827 59.5483H139.135C141.129 59.5483 142.787 59.1733 144.108 58.4233C145.429 57.6648 146.418 56.5696 147.074 55.1378C147.73 53.6974 148.058 51.9418 148.058 49.8707C148.058 47.8168 147.73 46.0739 147.074 44.642C146.426 43.2102 145.459 42.1236 144.172 41.3821C142.885 40.6406 141.287 40.2699 139.378 40.2699H134.827V59.5483ZM156.55 63V43.3636H160.373V63H156.55ZM158.48 40.3338C157.816 40.3338 157.245 40.1122 156.767 39.669C156.299 39.2173 156.064 38.6804 156.064 38.0582C156.064 37.4276 156.299 36.8906 156.767 36.4474C157.245 35.9957 157.816 35.7699 158.48 35.7699C159.145 35.7699 159.712 35.9957 160.181 36.4474C160.658 36.8906 160.897 37.4276 160.897 38.0582C160.897 38.6804 160.658 39.2173 160.181 39.669C159.712 40.1122 159.145 40.3338 158.48 40.3338ZM180.229 48.1577L176.765 48.7713C176.62 48.3281 176.39 47.9062 176.075 47.5057C175.768 47.1051 175.35 46.777 174.822 46.5213C174.293 46.2656 173.633 46.1378 172.84 46.1378C171.758 46.1378 170.854 46.3807 170.13 46.8665C169.406 47.3437 169.043 47.9616 169.043 48.7202C169.043 49.3764 169.286 49.9048 169.772 50.3054C170.258 50.706 171.042 51.0341 172.124 51.2898L175.244 52.0057C177.05 52.4233 178.397 53.0668 179.283 53.9361C180.17 54.8054 180.613 55.9347 180.613 57.3239C180.613 58.5 180.272 59.5483 179.59 60.4688C178.917 61.3807 177.975 62.0966 176.765 62.6165C175.563 63.1364 174.17 63.3963 172.585 63.3963C170.386 63.3963 168.592 62.9276 167.202 61.9901C165.813 61.044 164.961 59.7017 164.646 57.9631L168.34 57.4006C168.57 58.3636 169.043 59.0923 169.759 59.5866C170.475 60.0724 171.408 60.3153 172.559 60.3153C173.812 60.3153 174.813 60.0554 175.563 59.5355C176.313 59.0071 176.688 58.3636 176.688 57.6051C176.688 56.9915 176.458 56.4759 175.998 56.0582C175.546 55.6406 174.852 55.3253 173.914 55.1122L170.59 54.3835C168.758 53.9659 167.403 53.3011 166.525 52.3892C165.656 51.4773 165.221 50.3224 165.221 48.9247C165.221 47.7656 165.545 46.7514 166.192 45.8821C166.84 45.0128 167.735 44.3352 168.877 43.8494C170.019 43.3551 171.327 43.108 172.802 43.108C174.924 43.108 176.594 43.5682 177.813 44.4886C179.032 45.4006 179.837 46.6236 180.229 48.1577ZM193.087 63.3963C191.186 63.3963 189.55 62.9659 188.178 62.1051C186.814 61.2358 185.766 60.0384 185.033 58.5128C184.3 56.9872 183.934 55.2401 183.934 53.2713C183.934 51.277 184.309 49.517 185.059 47.9915C185.809 46.4574 186.865 45.2599 188.229 44.3991C189.593 43.5384 191.199 43.108 193.049 43.108C194.54 43.108 195.87 43.3849 197.037 43.9389C198.205 44.4844 199.147 45.2514 199.863 46.2401C200.587 47.2287 201.017 48.3835 201.154 49.7045H197.434C197.229 48.7841 196.76 47.9915 196.027 47.3267C195.303 46.6619 194.331 46.3295 193.113 46.3295C192.047 46.3295 191.114 46.6108 190.313 47.1733C189.52 47.7273 188.902 48.5199 188.459 49.5511C188.016 50.5739 187.794 51.7841 187.794 53.1818C187.794 54.6136 188.012 55.8494 188.446 56.8892C188.881 57.929 189.495 58.7344 190.287 59.3054C191.088 59.8764 192.03 60.1619 193.113 60.1619C193.837 60.1619 194.493 60.0298 195.081 59.7656C195.678 59.4929 196.176 59.1051 196.577 58.6023C196.986 58.0994 197.272 57.4943 197.434 56.7869H201.154C201.017 58.0568 200.604 59.1903 199.914 60.1875C199.223 61.1847 198.299 61.9687 197.14 62.5398C195.989 63.1108 194.638 63.3963 193.087 63.3963ZM213.513 63.3963C211.672 63.3963 210.065 62.9744 208.693 62.1307C207.321 61.2869 206.256 60.1065 205.497 58.5895C204.739 57.0724 204.359 55.2997 204.359 53.2713C204.359 51.2344 204.739 49.4531 205.497 47.9276C206.256 46.402 207.321 45.2173 208.693 44.3736C210.065 43.5298 211.672 43.108 213.513 43.108C215.354 43.108 216.96 43.5298 218.332 44.3736C219.705 45.2173 220.77 46.402 221.528 47.9276C222.287 49.4531 222.666 51.2344 222.666 53.2713C222.666 55.2997 222.287 57.0724 221.528 58.5895C220.77 60.1065 219.705 61.2869 218.332 62.1307C216.96 62.9744 215.354 63.3963 213.513 63.3963ZM213.526 60.1875C214.719 60.1875 215.707 59.8722 216.491 59.2415C217.276 58.6108 217.855 57.7713 218.23 56.723C218.614 55.6747 218.805 54.5199 218.805 53.2585C218.805 52.0057 218.614 50.8551 218.23 49.8068C217.855 48.75 217.276 47.902 216.491 47.2628C215.707 46.6236 214.719 46.304 213.526 46.304C212.324 46.304 211.327 46.6236 210.534 47.2628C209.75 47.902 209.166 48.75 208.783 49.8068C208.408 50.8551 208.22 52.0057 208.22 53.2585C208.22 54.5199 208.408 55.6747 208.783 56.723C209.166 57.7713 209.75 58.6108 210.534 59.2415C211.327 59.8722 212.324 60.1875 213.526 60.1875ZM226.933 63V43.3636H230.627V46.483H230.832C231.19 45.4261 231.821 44.5952 232.724 43.9901C233.636 43.3764 234.667 43.0696 235.818 43.0696C236.056 43.0696 236.338 43.0781 236.662 43.0952C236.994 43.1122 237.254 43.1335 237.441 43.1591V46.8153C237.288 46.7727 237.015 46.7259 236.623 46.6747C236.231 46.6151 235.839 46.5852 235.447 46.5852C234.544 46.5852 233.738 46.777 233.031 47.1605C232.332 47.5355 231.778 48.0597 231.369 48.733C230.96 49.3977 230.755 50.1562 230.755 51.0085V63H226.933ZM247.397 63.3835C245.812 63.3835 244.397 62.9787 243.153 62.169C241.917 61.3509 240.945 60.1875 240.238 58.679C239.539 57.1619 239.19 55.3423 239.19 53.2202C239.19 51.098 239.543 49.2827 240.251 47.7741C240.967 46.2656 241.947 45.1108 243.191 44.3097C244.435 43.5085 245.846 43.108 247.423 43.108C248.641 43.108 249.621 43.3125 250.363 43.7216C251.113 44.1222 251.692 44.5909 252.102 45.1278C252.519 45.6648 252.843 46.1378 253.073 46.5469H253.303V36.8182H257.126V63H253.393V59.9446H253.073C252.843 60.3622 252.511 60.8395 252.076 61.3764C251.65 61.9134 251.062 62.3821 250.312 62.7827C249.562 63.1832 248.59 63.3835 247.397 63.3835ZM248.241 60.1236C249.34 60.1236 250.269 59.8338 251.028 59.2543C251.795 58.6662 252.374 57.8523 252.766 56.8125C253.167 55.7727 253.367 54.5625 253.367 53.1818C253.367 51.8182 253.171 50.625 252.779 49.6023C252.387 48.5795 251.812 47.7827 251.053 47.2116C250.295 46.6406 249.357 46.3551 248.241 46.3551C247.09 46.3551 246.131 46.6534 245.364 47.25C244.597 47.8466 244.018 48.6605 243.626 49.6918C243.242 50.723 243.05 51.8864 243.05 53.1818C243.05 54.4943 243.246 55.6747 243.638 56.723C244.031 57.7713 244.61 58.6023 245.377 59.2159C246.153 59.821 247.107 60.1236 248.241 60.1236Z" fill="white"/>
<path d="M69.36 57.8056C66.5268 57.62 64.2993 55.2762 64.2993 52.4112C64.2993 52.3156 64.3012 52.22 64.3068 52.1244V52.1375C64.3012 52.0475 64.2975 51.9425 64.2975 51.8356C64.2975 48.9763 66.5287 46.64 69.345 46.4694H69.36C72.1893 46.6231 74.4243 48.9538 74.4243 51.8075C74.4243 51.9238 74.4206 52.0381 74.4131 52.1525V52.1375C74.4187 52.2312 74.4225 52.3419 74.4225 52.4525C74.4225 55.3081 72.1893 57.6425 69.3731 57.8038H69.3581L69.36 57.8056ZM50.6737 57.8056C47.8406 57.62 45.6131 55.2762 45.6131 52.4112C45.6131 52.3156 45.615 52.22 45.6206 52.1244V52.1375C45.615 52.0475 45.6112 51.9425 45.6112 51.8356C45.6112 48.9763 47.8425 46.64 50.6587 46.4694H50.6737C53.5031 46.6231 55.7381 48.9538 55.7381 51.8075C55.7381 51.9238 55.7343 52.0381 55.7268 52.1525V52.1375C55.7325 52.2275 55.7362 52.3325 55.7362 52.4394C55.7362 55.2988 53.505 57.635 50.6887 57.8056H50.6737ZM79.4868 32.1219C76.1812 30.5619 72.3412 29.3281 68.3212 28.6137L68.0418 28.5725C68.0325 28.5706 68.0212 28.5688 68.01 28.5688C67.9443 28.5688 67.8881 28.6044 67.8581 28.6569C67.4193 29.4275 66.9431 30.3894 66.5137 31.3756L66.4331 31.5837C64.5018 31.2744 62.2743 31.0981 60.0056 31.0981C57.7368 31.0981 55.5093 31.2744 53.3362 31.6137L53.5781 31.5819C53.0718 30.4006 52.5881 29.4406 52.0537 28.5106L52.1306 28.655C52.0987 28.6006 52.0406 28.5669 51.975 28.5669C51.9656 28.5669 51.9543 28.5669 51.945 28.5688C47.6456 29.3244 43.8056 30.5562 40.2168 32.2381L40.5 32.1181C40.4681 32.1312 40.4418 32.1538 40.425 32.1819C35.0737 39.7588 31.8712 49.1863 31.8712 59.3619C31.8712 61.0625 31.9612 62.7406 32.1356 64.3944L32.1187 64.1881C32.1243 64.2425 32.1525 64.2875 32.1918 64.3194C36.2043 67.3212 40.8693 69.74 45.9037 71.3281L46.2337 71.4181C46.2487 71.4238 46.2675 71.4256 46.2862 71.4256C46.3462 71.4256 46.3987 71.3975 46.4306 71.3544C47.4337 70.0044 48.3881 68.4744 49.215 66.8694L49.3031 66.6819C49.3143 66.6594 49.3218 66.6313 49.3218 66.6013C49.3218 66.5244 49.2731 66.4606 49.2056 66.4344H49.2037C47.4937 65.7744 46.0481 65.0713 44.6718 64.265L44.8162 64.3438C44.7618 64.3119 44.7262 64.2537 44.7262 64.1881C44.7262 64.13 44.7543 64.0775 44.7975 64.0456C45.0918 63.8244 45.3881 63.5956 45.6693 63.3631C45.6993 63.3388 45.7387 63.3238 45.78 63.3238C45.8062 63.3238 45.8306 63.3294 45.8512 63.3388H45.8493C49.9893 65.3281 54.8493 66.4906 59.9793 66.4906C65.1093 66.4906 69.9712 65.3281 74.31 63.2525L74.1093 63.3388C74.1318 63.3275 74.1562 63.3219 74.1843 63.3219C74.2256 63.3219 74.265 63.3369 74.295 63.3612C74.5762 63.5937 74.8706 63.8262 75.1687 64.0456C75.2118 64.0794 75.24 64.1319 75.24 64.19C75.24 64.2556 75.2043 64.3119 75.1537 64.3438C73.9143 65.0844 72.4687 65.7856 70.9631 66.365L70.7662 66.4325C70.6987 66.4588 70.65 66.5244 70.65 66.5994C70.65 66.6294 70.6575 66.6575 70.6706 66.6819C71.61 68.4819 72.5625 70.0081 73.6162 71.4575L73.5412 71.3506C73.5731 71.3956 73.6275 71.4256 73.6856 71.4256C73.7043 71.4256 73.7231 71.4219 73.74 71.4181C79.1118 69.7456 83.7843 67.3269 87.9243 64.2331L87.8025 64.3213C87.8437 64.2913 87.87 64.2444 87.8756 64.1919C88.0387 62.7219 88.1306 61.0156 88.1306 59.2888C88.1306 49.1356 84.9206 39.7325 79.4625 32.0375L79.56 32.1838C79.545 32.1538 79.5187 32.1294 79.4887 32.1162L79.4868 32.1219Z" fill="white"/>
</svg>
