<svg width="328" height="100" viewBox="0 0 328 100" fill="none" xmlns="http://www.w3.org/2000/svg">
<rect width="328" height="100" rx="20" fill="#1E1E1E"/>
<path d="M132.653 63H124.177V36.8182H132.922C135.487 36.8182 137.69 37.3423 139.531 38.3906C141.372 39.4304 142.782 40.9261 143.762 42.8778C144.751 44.821 145.245 47.152 145.245 49.8707C145.245 52.598 144.747 54.9418 143.75 56.902C142.761 58.8622 141.329 60.3707 139.454 61.4276C137.579 62.4759 135.312 63 132.653 63ZM128.127 59.5483H132.436C134.43 59.5483 136.088 59.1733 137.409 58.4233C138.73 57.6648 139.718 56.5696 140.375 55.1378C141.031 53.6974 141.359 51.9418 141.359 49.8707C141.359 47.8168 141.031 46.0739 140.375 44.642C139.727 43.2102 138.76 42.1236 137.473 41.3821C136.186 40.6406 134.588 40.2699 132.679 40.2699H128.127V59.5483ZM158.122 63.3963C156.281 63.3963 154.675 62.9744 153.303 62.1307C151.93 61.2869 150.865 60.1065 150.107 58.5895C149.348 57.0724 148.969 55.2997 148.969 53.2713C148.969 51.2344 149.348 49.4531 150.107 47.9276C150.865 46.402 151.93 45.2173 153.303 44.3736C154.675 43.5298 156.281 43.108 158.122 43.108C159.963 43.108 161.57 43.5298 162.942 44.3736C164.314 45.2173 165.379 46.402 166.138 47.9276C166.896 49.4531 167.276 51.2344 167.276 53.2713C167.276 55.2997 166.896 57.0724 166.138 58.5895C165.379 60.1065 164.314 61.2869 162.942 62.1307C161.57 62.9744 159.963 63.3963 158.122 63.3963ZM158.135 60.1875C159.328 60.1875 160.317 59.8722 161.101 59.2415C161.885 58.6108 162.464 57.7713 162.839 56.723C163.223 55.6747 163.415 54.5199 163.415 53.2585C163.415 52.0057 163.223 50.8551 162.839 49.8068C162.464 48.75 161.885 47.902 161.101 47.2628C160.317 46.6236 159.328 46.304 158.135 46.304C156.933 46.304 155.936 46.6236 155.143 47.2628C154.359 47.902 153.776 48.75 153.392 49.8068C153.017 50.8551 152.83 52.0057 152.83 53.2585C152.83 54.5199 153.017 55.6747 153.392 56.723C153.776 57.7713 154.359 58.6108 155.143 59.2415C155.936 59.8722 156.933 60.1875 158.135 60.1875ZM179.814 63.3963C177.913 63.3963 176.277 62.9659 174.904 62.1051C173.541 61.2358 172.493 60.0384 171.76 58.5128C171.027 56.9872 170.66 55.2401 170.66 53.2713C170.66 51.277 171.035 49.517 171.785 47.9915C172.535 46.4574 173.592 45.2599 174.956 44.3991C176.319 43.5384 177.926 43.108 179.775 43.108C181.267 43.108 182.596 43.3849 183.764 43.9389C184.931 44.4844 185.873 45.2514 186.589 46.2401C187.314 47.2287 187.744 48.3835 187.88 49.7045H184.16C183.956 48.7841 183.487 47.9915 182.754 47.3267C182.029 46.6619 181.058 46.3295 179.839 46.3295C178.774 46.3295 177.841 46.6108 177.039 47.1733C176.247 47.7273 175.629 48.5199 175.186 49.5511C174.743 50.5739 174.521 51.7841 174.521 53.1818C174.521 54.6136 174.738 55.8494 175.173 56.8892C175.608 57.929 176.221 58.7344 177.014 59.3054C177.815 59.8764 178.757 60.1619 179.839 60.1619C180.564 60.1619 181.22 60.0298 181.808 59.7656C182.404 59.4929 182.903 59.1051 183.304 58.6023C183.713 58.0994 183.998 57.4943 184.16 56.7869H187.88C187.744 58.0568 187.331 59.1903 186.64 60.1875C185.95 61.1847 185.025 61.9687 183.866 62.5398C182.716 63.1108 181.365 63.3963 179.814 63.3963ZM206.683 48.1577L203.218 48.7713C203.073 48.3281 202.843 47.9062 202.528 47.5057C202.221 47.1051 201.803 46.777 201.275 46.5213C200.746 46.2656 200.086 46.1378 199.293 46.1378C198.211 46.1378 197.308 46.3807 196.583 46.8665C195.859 47.3437 195.496 47.9616 195.496 48.7202C195.496 49.3764 195.739 49.9048 196.225 50.3054C196.711 50.706 197.495 51.0341 198.577 51.2898L201.697 52.0057C203.504 52.4233 204.85 53.0668 205.737 53.9361C206.623 54.8054 207.066 55.9347 207.066 57.3239C207.066 58.5 206.725 59.5483 206.043 60.4688C205.37 61.3807 204.428 62.0966 203.218 62.6165C202.016 63.1364 200.623 63.3963 199.038 63.3963C196.839 63.3963 195.045 62.9276 193.656 61.9901C192.266 61.044 191.414 59.7017 191.099 57.9631L194.793 57.4006C195.023 58.3636 195.496 59.0923 196.212 59.5866C196.928 60.0724 197.862 60.3153 199.012 60.3153C200.265 60.3153 201.266 60.0554 202.016 59.5355C202.766 59.0071 203.141 58.3636 203.141 57.6051C203.141 56.9915 202.911 56.4759 202.451 56.0582C201.999 55.6406 201.305 55.3253 200.367 55.1122L197.043 54.3835C195.211 53.9659 193.856 53.3011 192.978 52.3892C192.109 51.4773 191.674 50.3224 191.674 48.9247C191.674 47.7656 191.998 46.7514 192.646 45.8821C193.293 45.0128 194.188 44.3352 195.33 43.8494C196.472 43.3551 197.781 43.108 199.255 43.108C201.377 43.108 203.048 43.5682 204.266 44.4886C205.485 45.4006 206.29 46.6236 206.683 48.1577Z" fill="white"/>
<path d="M91.2924 37.0066C90.9466 37.0153 90.6179 37.1592 90.3765 37.4076C90.135 37.656 89.9999 37.9893 90 38.3362V61.6704C89.9999 62.0174 90.135 62.3506 90.3765 62.599C90.6179 62.8474 90.9466 62.9913 91.2924 63H109.386C109.737 63 110.075 62.8599 110.323 62.6106C110.572 62.3612 110.711 62.023 110.711 61.6704V43.6479H105.409C105.064 43.6392 104.735 43.4953 104.493 43.2469C104.252 42.9985 104.117 42.6653 104.117 42.3183V37L91.2924 37.0066Z" stroke="#007502" stroke-linecap="round" stroke-linejoin="round"/>
<path d="M104.057 37.0067L110.678 43.6479" stroke="#007502" stroke-linecap="round" stroke-linejoin="round"/>
<path d="M94.9309 49.2853H105.747" stroke="#007502" stroke-linecap="round" stroke-linejoin="round"/>
<path d="M94.9309 57.3293H105.747" stroke="#007502" stroke-linecap="round" stroke-linejoin="round"/>
<path d="M94.9309 53.3073H105.747" stroke="#007502" stroke-linecap="round" stroke-linejoin="round"/>
</svg>
