<svg width="265" height="48" viewBox="0 0 265 48" fill="none" xmlns="http://www.w3.org/2000/svg">
<path d="M35.0614 1.02706L34.5614 1.02819L34.5626 1.52811L35.0625 1.52706L35.0614 1.02706ZM35.0614 1L35.5614 0.998872L35.5603 0.498949L35.0603 0.500001L35.0614 1ZM9.98477 1.05277L9.98372 0.552772L9.48363 0.553824L9.48477 1.05391L9.98477 1.05277ZM10.0121 13.0313L9.51205 13.0325L9.51319 13.5324L10.0131 13.5313L10.0121 13.0313ZM34.6985 12.9794L35.1985 12.9782L35.1973 12.4783L34.6974 12.4794L34.6985 12.9794ZM34.751 36.059L34.251 36.0601L34.2522 36.56L34.7521 36.559L34.751 36.059ZM48 36.0311L48.0011 36.5311L48.5011 36.53L48.5 36.0299L48 36.0311ZM47.9202 1L48.4202 0.998861L48.4191 0.498949L47.9192 0.500001L47.9202 1ZM35.5614 1.02593L35.5614 0.998872L34.5614 1.00113L34.5614 1.02819L35.5614 1.02593ZM35.0603 0.500001L9.98372 0.552772L9.98582 1.55277L35.0624 1.5L35.0603 0.500001ZM9.48477 1.05391L9.51205 13.0325L10.5121 13.0302L10.4848 1.05163L9.48477 1.05391ZM10.0131 13.5313L34.6995 13.4794L34.6974 12.4794L10.011 12.5313L10.0131 13.5313ZM34.1985 12.9805L34.251 36.0601L35.251 36.0578L35.1985 12.9782L34.1985 12.9805ZM34.7521 36.559L48.0011 36.5311L47.999 35.5311L34.75 35.559L34.7521 36.559ZM48.5 36.0299L48.4202 0.998861L47.4202 1.00114L47.5 36.0322L48.5 36.0299ZM47.9192 0.500001L35.0604 0.527061L35.0625 1.52706L47.9213 1.5L47.9192 0.500001Z" fill="url(#paint0_linear_5_717)"/>
<path d="M33.9063 6.95773C33.9007 4.49883 31.815 2.50273 29.2571 2.50811C26.6992 2.5135 24.6227 4.51835 24.6283 6.97725C24.6339 9.43614 26.7195 11.4322 29.2774 11.4269C31.8354 11.4215 33.9119 9.41662 33.9063 6.95773Z" fill="black" stroke="black" stroke-width="1.30208"/>
<path d="M45.9825 18.495C45.9769 16.0361 43.8913 14.04 41.3333 14.0454C38.7754 14.0508 36.6989 16.0556 36.7045 18.5145C36.7101 20.9734 38.7957 22.9695 41.3536 22.9642C43.9116 22.9588 45.9881 20.9539 45.9825 18.495Z" fill="black" stroke="black" stroke-width="1.30208"/>
<path d="M45.9825 30.6317C45.9769 28.1728 43.8913 26.1767 41.3333 26.1821C38.7754 26.1874 36.6989 28.1923 36.7045 30.6512C36.7101 33.1101 38.7957 35.1062 41.3536 35.1008C43.9116 35.0954 45.9881 33.0906 45.9825 30.6317Z" fill="black" stroke="black" stroke-width="1.30208"/>
<path d="M45.9825 6.95773C45.9769 4.49883 43.8913 2.50273 41.3333 2.50811C38.7754 2.5135 36.6989 4.51835 36.7045 6.97725C36.7101 9.43614 38.7957 11.4322 41.3536 11.4269C43.9116 11.4215 45.9881 9.41662 45.9825 6.95773Z" fill="black" stroke="black" stroke-width="1.30208"/>
<path d="M33.5129 30.4818C33.5073 28.0229 31.4217 26.0268 28.8637 26.0322C26.3058 26.0376 24.2293 28.0425 24.2349 30.5014C24.2405 32.9603 26.3261 34.9564 28.884 34.951C31.442 34.9456 33.5185 32.9407 33.5129 30.4818Z" fill="black" stroke="black" stroke-width="1.30208"/>
<path d="M21.823 42.345C21.8174 39.8861 19.7318 37.89 17.1739 37.8954C14.6159 37.9008 12.5394 39.9057 12.545 42.3645C12.5506 44.8234 14.6362 46.8195 17.1942 46.8142C19.7521 46.8088 21.8286 44.8039 21.823 42.345Z" fill="black" stroke="black" stroke-width="1.30208"/>
<path d="M34.2926 42.4949C34.287 40.036 32.2014 38.0399 29.6435 38.0453C27.0855 38.0506 25.009 40.0555 25.0146 42.5144C25.0202 44.9733 27.1058 46.9694 29.6638 46.964C32.2217 46.9586 34.2982 44.9538 34.2926 42.4949Z" fill="black" stroke="black" stroke-width="1.30208"/>
<path d="M33.5129 18.495C33.5073 16.0361 31.4217 14.04 28.8637 14.0454C26.3058 14.0508 24.2293 16.0556 24.2349 18.5145C24.2405 20.9734 26.3261 22.9695 28.884 22.9642C31.442 22.9588 33.5185 20.9539 33.5129 18.495Z" fill="black" stroke="black" stroke-width="1.30208"/>
<path d="M10.2882 42.4686C10.2826 40.0097 8.19696 38.0136 5.63901 38.019C3.08107 38.0244 1.00457 40.0292 1.01017 42.4881C1.01577 44.947 3.10138 46.9431 5.65933 46.9377C8.21727 46.9323 10.2938 44.9275 10.2882 42.4686Z" fill="black" stroke="black" stroke-width="1.30208"/>
<path d="M21.8226 30.4818C21.817 28.0229 19.7314 26.0268 17.1734 26.0322C14.6155 26.0376 12.539 28.0425 12.5446 30.5014C12.5502 32.9603 14.6358 34.9564 17.1937 34.951C19.7517 34.9456 21.8282 32.9407 21.8226 30.4818Z" fill="black" stroke="black" stroke-width="1.30208"/>
<path d="M10.2882 30.4818C10.2826 28.0229 8.19696 26.0268 5.63901 26.0322C3.08107 26.0376 1.00457 28.0425 1.01017 30.5014C1.01577 32.9603 3.10138 34.9564 5.65933 34.951C8.21727 34.9456 10.2938 32.9407 10.2882 30.4818Z" fill="black" stroke="black" stroke-width="1.30208"/>
<path d="M10.2882 18.495C10.2826 16.0361 8.19696 14.04 5.63901 14.0454C3.08107 14.0508 1.00457 16.0556 1.01017 18.5145C1.01577 20.9734 3.10138 22.9695 5.65933 22.9642C8.21727 22.9588 10.2938 20.9539 10.2882 18.495Z" fill="black" stroke="black" stroke-width="1.30208"/>
<path d="M21.8226 18.495C21.817 16.0361 19.7314 14.04 17.1734 14.0454C14.6155 14.0508 12.539 16.0556 12.5446 18.5145C12.5502 20.9734 14.6358 22.9695 17.1937 22.9642C19.7517 22.9588 21.8282 20.9539 21.8226 18.495Z" fill="black" stroke="black" stroke-width="1.30208"/>
<path d="M22.0601 6.95773C22.0545 4.49883 19.9689 2.50273 17.411 2.50811C14.853 2.5135 12.7765 4.51835 12.7821 6.97725C12.7877 9.43614 14.8733 11.4322 17.4313 11.4269C19.9892 11.4215 22.0657 9.41662 22.0601 6.95773Z" fill="black" stroke="black" stroke-width="1.30208"/>
<path d="M65.224 13.664C64.776 13.4933 64.3813 13.3867 64.04 13.344C63.6987 13.28 63.3253 13.248 62.92 13.248C62.024 13.248 61.384 13.4507 61 13.856C60.6373 14.2613 60.456 14.9973 60.456 16.064V17.536H63.368V21.568H60.456V36H55.88V21.568H53.64V17.536H55.88V16.128C55.88 13.8027 56.3067 12.032 57.16 10.816C58.0347 9.6 59.56 8.992 61.736 8.992C62.9733 8.992 64.136 9.14133 65.224 9.44V13.664ZM85.149 26.752C85.149 28.1387 84.893 29.4293 84.381 30.624C83.869 31.7973 83.165 32.8213 82.269 33.696C81.373 34.5493 80.317 35.232 79.101 35.744C77.9063 36.2347 76.6263 36.48 75.261 36.48C73.8957 36.48 72.6157 36.2347 71.421 35.744C70.2263 35.232 69.181 34.5387 68.285 33.664C67.389 32.7893 66.685 31.7653 66.173 30.592C65.661 29.3973 65.405 28.1173 65.405 26.752C65.405 25.408 65.661 24.1493 66.173 22.976C66.7063 21.7813 67.421 20.7467 68.317 19.872C69.213 18.976 70.2583 18.2827 71.453 17.792C72.6477 17.28 73.917 17.024 75.261 17.024C76.6263 17.024 77.9063 17.28 79.101 17.792C80.317 18.2827 81.373 18.9653 82.269 19.84C83.165 20.6933 83.869 21.7173 84.381 22.912C84.893 24.1067 85.149 25.3867 85.149 26.752ZM80.541 26.752C80.541 25.9627 80.4023 25.2267 80.125 24.544C79.8477 23.8613 79.4637 23.264 78.973 22.752C78.5037 22.24 77.949 21.8453 77.309 21.568C76.669 21.2693 75.9863 21.12 75.261 21.12C74.5357 21.12 73.853 21.2693 73.213 21.568C72.573 21.8453 72.0077 22.24 71.517 22.752C71.0477 23.264 70.6743 23.8613 70.397 24.544C70.1197 25.2267 69.981 25.9627 69.981 26.752C69.981 27.5413 70.1197 28.2773 70.397 28.96C70.6743 29.6427 71.0477 30.24 71.517 30.752C72.0077 31.264 72.573 31.6693 73.213 31.968C73.853 32.2453 74.5357 32.384 75.261 32.384C75.9863 32.384 76.669 32.2453 77.309 31.968C77.949 31.6693 78.5037 31.264 78.973 30.752C79.4637 30.24 79.8477 29.6427 80.125 28.96C80.4023 28.2773 80.541 27.5413 80.541 26.752ZM101.326 19.424L98.8617 23.328C98.4137 22.8373 97.9124 22.4107 97.3577 22.048C96.8244 21.664 96.2804 21.472 95.7257 21.472C95.4271 21.472 95.0964 21.5467 94.7337 21.696C94.3924 21.824 94.0617 22.048 93.7417 22.368C93.4431 22.688 93.1871 23.1147 92.9737 23.648C92.7604 24.16 92.6537 24.8 92.6537 25.568V36H88.0137V17.504H92.6537V19.488C93.2084 18.6987 93.8164 18.0907 94.4777 17.664C95.1604 17.2373 95.9177 17.024 96.7497 17.024C97.5604 17.024 98.3497 17.248 99.1177 17.696C99.9071 18.1227 100.643 18.6987 101.326 19.424ZM117.96 36H113.32V35.008C112.509 35.5627 111.645 35.9467 110.728 36.16C109.832 36.3733 108.904 36.48 107.944 36.48C107.048 36.48 106.237 36.3413 105.512 36.064C104.787 35.808 104.157 35.4347 103.624 34.944C103.091 34.432 102.675 33.8347 102.376 33.152C102.099 32.4693 101.96 31.712 101.96 30.88C101.96 29.8347 102.184 28.928 102.632 28.16C103.101 27.3707 103.731 26.72 104.52 26.208C105.309 25.6747 106.227 25.28 107.272 25.024C108.339 24.768 109.48 24.64 110.696 24.64H113.352C113.352 23.552 113 22.688 112.296 22.048C111.592 21.408 110.579 21.088 109.256 21.088C108.616 21.088 107.955 21.2053 107.272 21.44C106.589 21.6747 105.907 22.1013 105.224 22.72L102.504 19.968C103.485 19.0293 104.616 18.304 105.896 17.792C107.197 17.28 108.531 17.024 109.896 17.024C111.176 17.024 112.317 17.2267 113.32 17.632C114.323 18.0373 115.133 18.56 115.752 19.2C116.563 20.0107 117.128 20.9173 117.448 21.92C117.789 22.9227 117.96 24.2027 117.96 25.76V36ZM113.32 31.392V27.968H111.208C110.568 27.968 109.96 28.0107 109.384 28.096C108.829 28.1813 108.339 28.3307 107.912 28.544C107.507 28.736 107.176 28.992 106.92 29.312C106.685 29.632 106.568 30.016 106.568 30.464C106.568 31.104 106.813 31.6267 107.304 32.032C107.816 32.4373 108.467 32.64 109.256 32.64C109.939 32.64 110.611 32.5333 111.272 32.32C111.955 32.1067 112.637 31.7973 113.32 31.392ZM148.728 36H144.024V35.04C143.427 35.5307 142.776 35.8827 142.072 36.096C141.368 36.3307 140.622 36.448 139.832 36.448C138.531 36.448 137.336 36.192 136.248 35.68C135.16 35.1467 134.222 34.4427 133.432 33.568C132.643 32.672 132.024 31.6373 131.576 30.464C131.15 29.2907 130.936 28.0533 130.936 26.752C130.936 25.3653 131.182 24.0853 131.672 22.912C132.184 21.7173 132.856 20.6827 133.688 19.808C134.52 18.9333 135.47 18.2507 136.536 17.76C137.603 17.248 138.702 16.992 139.832 16.992C140.622 16.992 141.39 17.0987 142.136 17.312C142.883 17.5253 143.523 17.824 144.056 18.208V9.44H148.728V36ZM144.088 31.04V22.144C143.875 21.9947 143.63 21.856 143.352 21.728C143.075 21.5787 142.787 21.4613 142.488 21.376C142.19 21.2693 141.891 21.1947 141.592 21.152C141.294 21.088 141.027 21.056 140.792 21.056C140.024 21.056 139.32 21.1947 138.68 21.472C138.062 21.728 137.518 22.112 137.048 22.624C136.579 23.1147 136.216 23.712 135.96 24.416C135.704 25.12 135.576 25.8987 135.576 26.752C135.576 27.584 135.704 28.352 135.96 29.056C136.216 29.7387 136.568 30.336 137.016 30.848C137.464 31.3387 137.998 31.7227 138.616 32C139.256 32.2773 139.95 32.416 140.696 32.416C141.912 32.416 143.043 31.9573 144.088 31.04ZM171.68 26.752C171.68 28.1387 171.424 29.4293 170.912 30.624C170.4 31.7973 169.696 32.8213 168.8 33.696C167.904 34.5493 166.848 35.232 165.632 35.744C164.438 36.2347 163.158 36.48 161.792 36.48C160.427 36.48 159.147 36.2347 157.952 35.744C156.758 35.232 155.712 34.5387 154.816 33.664C153.92 32.7893 153.216 31.7653 152.704 30.592C152.192 29.3973 151.936 28.1173 151.936 26.752C151.936 25.408 152.192 24.1493 152.704 22.976C153.238 21.7813 153.952 20.7467 154.848 19.872C155.744 18.976 156.79 18.2827 157.984 17.792C159.179 17.28 160.448 17.024 161.792 17.024C163.158 17.024 164.438 17.28 165.632 17.792C166.848 18.2827 167.904 18.9653 168.8 19.84C169.696 20.6933 170.4 21.7173 170.912 22.912C171.424 24.1067 171.68 25.3867 171.68 26.752ZM167.072 26.752C167.072 25.9627 166.934 25.2267 166.656 24.544C166.379 23.8613 165.995 23.264 165.504 22.752C165.035 22.24 164.48 21.8453 163.84 21.568C163.2 21.2693 162.518 21.12 161.792 21.12C161.067 21.12 160.384 21.2693 159.744 21.568C159.104 21.8453 158.539 22.24 158.048 22.752C157.579 23.264 157.206 23.8613 156.928 24.544C156.651 25.2267 156.512 25.9627 156.512 26.752C156.512 27.5413 156.651 28.2773 156.928 28.96C157.206 29.6427 157.579 30.24 158.048 30.752C158.539 31.264 159.104 31.6693 159.744 31.968C160.384 32.2453 161.067 32.384 161.792 32.384C162.518 32.384 163.2 32.2453 163.84 31.968C164.48 31.6693 165.035 31.264 165.504 30.752C165.995 30.24 166.379 29.6427 166.656 28.96C166.934 28.2773 167.072 27.5413 167.072 26.752ZM201.343 33.216C200.404 34.2827 199.273 35.0933 197.951 35.648C196.628 36.2027 195.241 36.48 193.791 36.48C192.447 36.48 191.177 36.2347 189.983 35.744C188.788 35.2533 187.743 34.5813 186.847 33.728C185.972 32.8533 185.279 31.8187 184.767 30.624C184.255 29.4293 183.999 28.1387 183.999 26.752C183.999 25.3867 184.255 24.1173 184.767 22.944C185.279 21.7493 185.972 20.7147 186.847 19.84C187.721 18.9653 188.756 18.2827 189.951 17.792C191.145 17.28 192.425 17.024 193.791 17.024C195.199 17.024 196.532 17.28 197.791 17.792C199.071 18.304 200.18 19.0827 201.119 20.128L198.015 23.296C197.545 22.6773 196.969 22.1653 196.287 21.76C195.625 21.3547 194.815 21.152 193.855 21.152C193.151 21.152 192.479 21.3013 191.839 21.6C191.22 21.8987 190.665 22.304 190.175 22.816C189.705 23.3067 189.332 23.8933 189.055 24.576C188.777 25.2587 188.639 25.984 188.639 26.752C188.639 27.52 188.777 28.2453 189.055 28.928C189.332 29.6107 189.705 30.208 190.175 30.72C190.644 31.2107 191.199 31.6053 191.839 31.904C192.479 32.2027 193.151 32.352 193.855 32.352C194.772 32.352 195.604 32.1387 196.351 31.712C197.097 31.264 197.695 30.6987 198.143 30.016L201.343 33.216ZM219.96 36H215.352V34.592C215.054 34.8907 214.702 35.1573 214.296 35.392C213.912 35.6053 213.496 35.7973 213.048 35.968C212.622 36.1173 212.174 36.2347 211.704 36.32C211.256 36.4053 210.83 36.448 210.424 36.448C209.486 36.448 208.579 36.2987 207.704 36C206.851 35.7013 206.094 35.2427 205.432 34.624C204.771 34.0053 204.238 33.2053 203.832 32.224C203.448 31.2427 203.256 30.08 203.256 28.736V17.504H207.864V28.512C207.864 29.1733 207.96 29.76 208.152 30.272C208.366 30.7627 208.632 31.1787 208.952 31.52C209.294 31.84 209.678 32.0853 210.104 32.256C210.552 32.4053 211.011 32.48 211.48 32.48C212.974 32.48 214.264 31.968 215.352 30.944V17.504H219.96V36ZM241.587 26.752C241.587 28.0533 241.363 29.2907 240.915 30.464C240.488 31.6373 239.88 32.672 239.091 33.568C238.302 34.4427 237.363 35.1467 236.275 35.68C235.187 36.192 233.992 36.448 232.691 36.448C231.88 36.448 231.123 36.3307 230.419 36.096C229.715 35.8827 229.054 35.5307 228.435 35.04V36H223.795V9.44H228.467V18.4C229 17.9733 229.63 17.632 230.355 17.376C231.102 17.12 231.88 16.992 232.691 16.992C233.822 16.992 234.92 17.248 235.987 17.76C237.054 18.2507 238.003 18.9333 238.835 19.808C239.667 20.6827 240.328 21.7173 240.819 22.912C241.331 24.0853 241.587 25.3653 241.587 26.752ZM236.915 26.752C236.915 25.8987 236.787 25.12 236.531 24.416C236.275 23.712 235.912 23.1147 235.443 22.624C234.995 22.112 234.451 21.728 233.811 21.472C233.192 21.1947 232.499 21.056 231.731 21.056C231.24 21.056 230.675 21.1627 230.035 21.376C229.395 21.568 228.862 21.824 228.435 22.144V31.04C229.438 31.9573 230.568 32.416 231.827 32.416C232.552 32.416 233.224 32.2773 233.843 32C234.483 31.7227 235.027 31.3387 235.475 30.848C235.923 30.336 236.275 29.7387 236.531 29.056C236.787 28.352 236.915 27.584 236.915 26.752ZM263.586 26.752C263.586 28.1387 263.33 29.4293 262.818 30.624C262.306 31.7973 261.602 32.8213 260.706 33.696C259.81 34.5493 258.754 35.232 257.538 35.744C256.344 36.2347 255.064 36.48 253.698 36.48C252.333 36.48 251.053 36.2347 249.858 35.744C248.664 35.232 247.618 34.5387 246.722 33.664C245.826 32.7893 245.122 31.7653 244.61 30.592C244.098 29.3973 243.842 28.1173 243.842 26.752C243.842 25.408 244.098 24.1493 244.61 22.976C245.144 21.7813 245.858 20.7467 246.754 19.872C247.65 18.976 248.696 18.2827 249.89 17.792C251.085 17.28 252.354 17.024 253.698 17.024C255.064 17.024 256.344 17.28 257.538 17.792C258.754 18.2827 259.81 18.9653 260.706 19.84C261.602 20.6933 262.306 21.7173 262.818 22.912C263.33 24.1067 263.586 25.3867 263.586 26.752ZM258.978 26.752C258.978 25.9627 258.84 25.2267 258.562 24.544C258.285 23.8613 257.901 23.264 257.41 22.752C256.941 22.24 256.386 21.8453 255.746 21.568C255.106 21.2693 254.424 21.12 253.698 21.12C252.973 21.12 252.29 21.2693 251.65 21.568C251.01 21.8453 250.445 22.24 249.954 22.752C249.485 23.264 249.112 23.8613 248.834 24.544C248.557 25.2267 248.418 25.9627 248.418 26.752C248.418 27.5413 248.557 28.2773 248.834 28.96C249.112 29.6427 249.485 30.24 249.954 30.752C250.445 31.264 251.01 31.6693 251.65 31.968C252.29 32.2453 252.973 32.384 253.698 32.384C254.424 32.384 255.106 32.2453 255.746 31.968C256.386 31.6693 256.941 31.264 257.41 30.752C257.901 30.24 258.285 29.6427 258.562 28.96C258.84 28.2773 258.978 27.5413 258.978 26.752Z" fill="#1E1E1E"/>
<defs>
<linearGradient id="paint0_linear_5_717" x1="29.0567" y1="-7.39076" x2="28.9973" y2="36.059" gradientUnits="userSpaceOnUse">
<stop stop-color="#175F41"/>
<stop offset="1" stop-color="#C45093"/>
</linearGradient>
</defs>
</svg>
