<svg width="390" height="105" viewBox="0 0 390 105" fill="none" xmlns="http://www.w3.org/2000/svg">
<rect width="328" height="100" rx="20" fill="#1E1E1E"/>
<path d="M148.595 45.0895C148.348 44.3139 148.016 43.6193 147.598 43.0057C147.189 42.3835 146.699 41.8551 146.128 41.4205C145.557 40.9773 144.905 40.6406 144.172 40.4105C143.447 40.1804 142.651 40.0653 141.781 40.0653C140.307 40.0653 138.977 40.4446 137.793 41.2031C136.608 41.9616 135.67 43.0739 134.98 44.5398C134.298 45.9972 133.957 47.7827 133.957 49.8963C133.957 52.0185 134.303 53.8125 134.993 55.2784C135.683 56.7443 136.629 57.8565 137.831 58.6151C139.033 59.3736 140.401 59.7528 141.935 59.7528C143.358 59.7528 144.598 59.4631 145.655 58.8835C146.72 58.304 147.543 57.4858 148.122 56.429C148.71 55.3636 149.004 54.1108 149.004 52.6705L150.027 52.8622H142.536V49.6023H152.827V52.581C152.827 54.7798 152.358 56.6889 151.42 58.3082C150.491 59.919 149.205 61.1634 147.56 62.0412C145.923 62.919 144.048 63.358 141.935 63.358C139.565 63.358 137.486 62.8125 135.696 61.7216C133.915 60.6307 132.526 59.0838 131.528 57.081C130.531 55.0696 130.033 52.6832 130.033 49.9219C130.033 47.8338 130.322 45.9588 130.902 44.2969C131.482 42.6349 132.295 41.2244 133.344 40.0653C134.401 38.8977 135.641 38.0071 137.064 37.3935C138.496 36.7713 140.06 36.4602 141.756 36.4602C143.17 36.4602 144.487 36.669 145.706 37.0866C146.933 37.5043 148.024 38.0966 148.979 38.8636C149.942 39.6307 150.739 40.5426 151.369 41.5994C152 42.6477 152.426 43.8111 152.648 45.0895H148.595ZM158.765 63V43.3636H162.587V63H158.765ZM160.695 40.3338C160.031 40.3338 159.46 40.1122 158.982 39.669C158.513 39.2173 158.279 38.6804 158.279 38.0582C158.279 37.4276 158.513 36.8906 158.982 36.4474C159.46 35.9957 160.031 35.7699 160.695 35.7699C161.36 35.7699 161.927 35.9957 162.396 36.4474C162.873 36.8906 163.112 37.4276 163.112 38.0582C163.112 38.6804 162.873 39.2173 162.396 39.669C161.927 40.1122 161.36 40.3338 160.695 40.3338ZM176.896 43.3636V46.4318H166.17V43.3636H176.896ZM169.047 38.6591H172.869V57.2344C172.869 57.9759 172.98 58.5341 173.201 58.9091C173.423 59.2756 173.708 59.527 174.058 59.6634C174.416 59.7912 174.804 59.8551 175.221 59.8551C175.528 59.8551 175.797 59.8338 176.027 59.7912C176.257 59.7486 176.436 59.7145 176.564 59.6889L177.254 62.8466C177.032 62.9318 176.717 63.017 176.308 63.1023C175.899 63.196 175.387 63.2472 174.774 63.2557C173.768 63.2727 172.831 63.0938 171.961 62.7188C171.092 62.3438 170.389 61.7642 169.852 60.9801C169.315 60.196 169.047 59.2116 169.047 58.027V38.6591ZM185.369 51.3409V63H181.546V36.8182H185.317V46.5597H185.56C186.021 45.5028 186.724 44.6634 187.67 44.0412C188.616 43.419 189.852 43.108 191.377 43.108C192.724 43.108 193.9 43.3849 194.906 43.9389C195.92 44.4929 196.704 45.3196 197.258 46.419C197.82 47.5099 198.102 48.8736 198.102 50.5099V63H194.279V50.9702C194.279 49.5298 193.908 48.4134 193.167 47.6207C192.425 46.8196 191.394 46.419 190.073 46.419C189.17 46.419 188.36 46.6108 187.644 46.9943C186.937 47.3778 186.379 47.9403 185.969 48.6818C185.569 49.4148 185.369 50.3011 185.369 51.3409ZM215.641 54.8565V43.3636H219.477V63H215.718V59.5994H215.513C215.062 60.6477 214.337 61.5213 213.34 62.2202C212.352 62.9105 211.12 63.2557 209.646 63.2557C208.384 63.2557 207.268 62.9787 206.296 62.4247C205.333 61.8622 204.575 61.0312 204.021 59.9318C203.475 58.8324 203.202 57.473 203.202 55.8537V43.3636H207.025V55.3935C207.025 56.7315 207.396 57.7969 208.137 58.5895C208.879 59.3821 209.842 59.7784 211.026 59.7784C211.742 59.7784 212.454 59.5994 213.161 59.2415C213.877 58.8835 214.469 58.3423 214.938 57.6179C215.415 56.8935 215.65 55.973 215.641 54.8565ZM224.919 63V36.8182H228.742V46.5469H228.972C229.194 46.1378 229.513 45.6648 229.931 45.1278C230.348 44.5909 230.928 44.1222 231.669 43.7216C232.411 43.3125 233.391 43.108 234.61 43.108C236.195 43.108 237.61 43.5085 238.854 44.3097C240.098 45.1108 241.074 46.2656 241.782 47.7741C242.498 49.2827 242.855 51.098 242.855 53.2202C242.855 55.3423 242.502 57.1619 241.794 58.679C241.087 60.1875 240.115 61.3509 238.88 62.169C237.644 62.9787 236.233 63.3835 234.648 63.3835C233.455 63.3835 232.479 63.1832 231.721 62.7827C230.971 62.3821 230.382 61.9134 229.956 61.3764C229.53 60.8395 229.202 60.3622 228.972 59.9446H228.652V63H224.919ZM228.665 53.1818C228.665 54.5625 228.865 55.7727 229.266 56.8125C229.667 57.8523 230.246 58.6662 231.005 59.2543C231.763 59.8338 232.692 60.1236 233.792 60.1236C234.934 60.1236 235.888 59.821 236.655 59.2159C237.422 58.6023 238.002 57.7713 238.394 56.723C238.794 55.6747 238.995 54.4943 238.995 53.1818C238.995 51.8864 238.799 50.723 238.407 49.6918C238.023 48.6605 237.444 47.8466 236.668 47.25C235.901 46.6534 234.942 46.3551 233.792 46.3551C232.684 46.3551 231.746 46.6406 230.979 47.2116C230.221 47.7827 229.645 48.5795 229.253 49.6023C228.861 50.625 228.665 51.8182 228.665 53.1818Z" fill="white"/>
<g clip-path="url(#clip0_11_882)">
<path fill-rule="evenodd" clip-rule="evenodd" d="M62 20C78.569 20 92 33.7698 92 50.7588C92 64.3458 83.414 75.8719 71.501 79.9429C69.98 80.2459 69.44 79.2853 69.44 78.4663C69.44 77.4523 69.476 74.1404 69.476 70.0244C69.476 67.1564 68.516 65.2846 67.439 64.3306C74.12 63.5686 81.14 60.9673 81.14 49.1533C81.14 45.7933 79.976 43.0515 78.05 40.8975C78.362 40.1205 79.391 36.9919 77.756 32.7559C77.756 32.7559 75.242 31.9317 69.515 35.9097C67.118 35.2287 64.55 34.886 62 34.874C59.45 34.886 56.885 35.2287 54.491 35.9097C48.758 31.9317 46.238 32.7559 46.238 32.7559C44.609 36.9919 45.638 40.1205 45.947 40.8975C44.03 43.0515 42.857 45.7933 42.857 49.1533C42.857 60.9373 49.862 63.5785 56.525 64.3555C55.667 65.1235 54.89 66.4783 54.62 68.4673C52.91 69.2533 48.566 70.6136 45.89 65.9126C45.89 65.9126 44.303 62.9572 41.291 62.7412C41.291 62.7412 38.366 62.7024 41.087 64.6104C41.087 64.6104 43.052 65.5554 44.417 69.1104C44.417 69.1104 46.178 74.6002 54.524 72.7402C54.539 75.3112 54.566 77.7343 54.566 78.4663C54.566 79.2793 54.014 80.2308 52.517 79.9458C40.595 75.8808 32 64.3488 32 50.7588C32 33.7698 45.434 20 62 20Z" fill="white"/>
</g>
<defs>
<clipPath id="clip0_11_882">
<rect width="60" height="60" fill="white" transform="translate(32 20)"/>
</clipPath>
</defs>
</svg>
