<svg width="390" height="105" viewBox="0 0 390 105" fill="none" xmlns="http://www.w3.org/2000/svg">
<rect width="328" height="100" rx="20" fill="#1E1E1E"/>
<path d="M134.392 51.3409V63H130.57V43.3636H134.239V46.5597H134.482C134.933 45.5199 135.641 44.6847 136.604 44.054C137.575 43.4233 138.798 43.108 140.273 43.108C141.611 43.108 142.783 43.3892 143.788 43.9517C144.794 44.5057 145.574 45.3324 146.128 46.4318C146.682 47.5312 146.959 48.8906 146.959 50.5099V63H143.136V50.9702C143.136 49.5469 142.766 48.4347 142.024 47.6335C141.283 46.8239 140.264 46.419 138.969 46.419C138.082 46.419 137.294 46.6108 136.604 46.9943C135.922 47.3778 135.381 47.9403 134.98 48.6818C134.588 49.4148 134.392 50.3011 134.392 51.3409ZM160.548 63.3963C158.614 63.3963 156.947 62.983 155.55 62.1562C154.161 61.321 153.087 60.1491 152.328 58.6406C151.578 57.1236 151.203 55.3466 151.203 53.3097C151.203 51.2983 151.578 49.5256 152.328 47.9915C153.087 46.4574 154.143 45.2599 155.499 44.3991C156.862 43.5384 158.456 43.108 160.28 43.108C161.388 43.108 162.462 43.2912 163.501 43.6577C164.541 44.0241 165.474 44.5994 166.301 45.3835C167.128 46.1676 167.78 47.1861 168.257 48.4389C168.734 49.6832 168.973 51.196 168.973 52.9773V54.3324H153.364V51.4688H165.227C165.227 50.4631 165.023 49.5724 164.614 48.7969C164.205 48.0128 163.629 47.3949 162.888 46.9432C162.155 46.4915 161.294 46.2656 160.305 46.2656C159.232 46.2656 158.294 46.5298 157.493 47.0582C156.7 47.5781 156.087 48.2599 155.652 49.1037C155.226 49.9389 155.013 50.8466 155.013 51.8267V54.0639C155.013 55.3764 155.243 56.4929 155.703 57.4134C156.172 58.3338 156.824 59.0369 157.659 59.5227C158.494 60 159.47 60.2386 160.587 60.2386C161.311 60.2386 161.972 60.1364 162.568 59.9318C163.165 59.7187 163.68 59.4034 164.115 58.9858C164.55 58.5682 164.882 58.0526 165.112 57.4389L168.73 58.0909C168.44 59.1562 167.92 60.0895 167.17 60.8906C166.429 61.6832 165.496 62.3011 164.371 62.7443C163.254 63.179 161.98 63.3963 160.548 63.3963ZM177.436 63L171.658 43.3636H175.608L179.456 57.7841H179.648L183.509 43.3636H187.459L191.294 57.7202H191.486L195.308 43.3636H199.259L193.493 63H189.594L185.605 48.8224H185.311L181.322 63H177.436ZM217.6 48.1577L214.136 48.7713C213.991 48.3281 213.761 47.9062 213.446 47.5057C213.139 47.1051 212.721 46.777 212.193 46.5213C211.664 46.2656 211.004 46.1378 210.211 46.1378C209.129 46.1378 208.225 46.3807 207.501 46.8665C206.777 47.3437 206.414 47.9616 206.414 48.7202C206.414 49.3764 206.657 49.9048 207.143 50.3054C207.629 50.706 208.413 51.0341 209.495 51.2898L212.615 52.0057C214.422 52.4233 215.768 53.0668 216.654 53.9361C217.541 54.8054 217.984 55.9347 217.984 57.3239C217.984 58.5 217.643 59.5483 216.961 60.4688C216.288 61.3807 215.346 62.0966 214.136 62.6165C212.934 63.1364 211.541 63.3963 209.956 63.3963C207.757 63.3963 205.963 62.9276 204.574 61.9901C203.184 61.044 202.332 59.7017 202.017 57.9631L205.711 57.4006C205.941 58.3636 206.414 59.0923 207.13 59.5866C207.846 60.0724 208.779 60.3153 209.93 60.3153C211.183 60.3153 212.184 60.0554 212.934 59.5355C213.684 59.0071 214.059 58.3636 214.059 57.6051C214.059 56.9915 213.829 56.4759 213.369 56.0582C212.917 55.6406 212.223 55.3253 211.285 55.1122L207.961 54.3835C206.129 53.9659 204.774 53.3011 203.896 52.3892C203.027 51.4773 202.592 50.3224 202.592 48.9247C202.592 47.7656 202.916 46.7514 203.564 45.8821C204.211 45.0128 205.106 44.3352 206.248 43.8494C207.39 43.3551 208.699 43.108 210.173 43.108C212.295 43.108 213.966 43.5682 215.184 44.4886C216.403 45.4006 217.208 46.6236 217.6 48.1577ZM226.009 36.8182V63H222.187V36.8182H226.009ZM239.615 63.3963C237.68 63.3963 236.014 62.983 234.616 62.1562C233.227 61.321 232.153 60.1491 231.395 58.6406C230.645 57.1236 230.27 55.3466 230.27 53.3097C230.27 51.2983 230.645 49.5256 231.395 47.9915C232.153 46.4574 233.21 45.2599 234.565 44.3991C235.929 43.5384 237.522 43.108 239.346 43.108C240.454 43.108 241.528 43.2912 242.568 43.6577C243.608 44.0241 244.541 44.5994 245.368 45.3835C246.194 46.1676 246.846 47.1861 247.324 48.4389C247.801 49.6832 248.039 51.196 248.039 52.9773V54.3324H232.43V51.4688H244.294C244.294 50.4631 244.089 49.5724 243.68 48.7969C243.271 48.0128 242.696 47.3949 241.954 46.9432C241.221 46.4915 240.36 46.2656 239.372 46.2656C238.298 46.2656 237.36 46.5298 236.559 47.0582C235.767 47.5781 235.153 48.2599 234.718 49.1037C234.292 49.9389 234.079 50.8466 234.079 51.8267V54.0639C234.079 55.3764 234.309 56.4929 234.77 57.4134C235.238 58.3338 235.89 59.0369 236.725 59.5227C237.561 60 238.537 60.2386 239.653 60.2386C240.377 60.2386 241.038 60.1364 241.635 59.9318C242.231 59.7187 242.747 59.4034 243.181 58.9858C243.616 58.5682 243.949 58.0526 244.179 57.4389L247.797 58.0909C247.507 59.1562 246.987 60.0895 246.237 60.8906C245.495 61.6832 244.562 62.3011 243.437 62.7443C242.321 63.179 241.047 63.3963 239.615 63.3963ZM261.447 43.3636V46.4318H250.721V43.3636H261.447ZM253.597 38.6591H257.42V57.2344C257.42 57.9759 257.531 58.5341 257.752 58.9091C257.974 59.2756 258.259 59.527 258.609 59.6634C258.967 59.7912 259.354 59.8551 259.772 59.8551C260.079 59.8551 260.347 59.8338 260.577 59.7912C260.808 59.7486 260.987 59.7145 261.114 59.6889L261.805 62.8466C261.583 62.9318 261.268 63.017 260.859 63.1023C260.45 63.196 259.938 63.2472 259.325 63.2557C258.319 63.2727 257.381 63.0938 256.512 62.7188C255.643 62.3438 254.94 61.7642 254.403 60.9801C253.866 60.196 253.597 59.2116 253.597 58.027V38.6591ZM274.841 43.3636V46.4318H264.115V43.3636H274.841ZM266.992 38.6591H270.814V57.2344C270.814 57.9759 270.925 58.5341 271.147 58.9091C271.368 59.2756 271.654 59.527 272.003 59.6634C272.361 59.7912 272.749 59.8551 273.167 59.8551C273.473 59.8551 273.742 59.8338 273.972 59.7912C274.202 59.7486 274.381 59.7145 274.509 59.6889L275.199 62.8466C274.978 62.9318 274.662 63.017 274.253 63.1023C273.844 63.196 273.333 63.2472 272.719 63.2557C271.713 63.2727 270.776 63.0938 269.907 62.7188C269.037 62.3438 268.334 61.7642 267.797 60.9801C267.26 60.196 266.992 59.2116 266.992 58.027V38.6591ZM287.322 63.3963C285.387 63.3963 283.721 62.983 282.323 62.1562C280.934 61.321 279.86 60.1491 279.102 58.6406C278.352 57.1236 277.977 55.3466 277.977 53.3097C277.977 51.2983 278.352 49.5256 279.102 47.9915C279.86 46.4574 280.917 45.2599 282.272 44.3991C283.636 43.5384 285.229 43.108 287.053 43.108C288.161 43.108 289.235 43.2912 290.275 43.6577C291.315 44.0241 292.248 44.5994 293.075 45.3835C293.901 46.1676 294.553 47.1861 295.031 48.4389C295.508 49.6832 295.746 51.196 295.746 52.9773V54.3324H280.137V51.4688H292.001C292.001 50.4631 291.796 49.5724 291.387 48.7969C290.978 48.0128 290.403 47.3949 289.661 46.9432C288.928 46.4915 288.067 46.2656 287.079 46.2656C286.005 46.2656 285.067 46.5298 284.266 47.0582C283.474 47.5781 282.86 48.2599 282.425 49.1037C281.999 49.9389 281.786 50.8466 281.786 51.8267V54.0639C281.786 55.3764 282.016 56.4929 282.477 57.4134C282.945 58.3338 283.597 59.0369 284.433 59.5227C285.268 60 286.244 60.2386 287.36 60.2386C288.085 60.2386 288.745 60.1364 289.342 59.9318C289.938 59.7187 290.454 59.4034 290.888 58.9858C291.323 58.5682 291.656 58.0526 291.886 57.4389L295.504 58.0909C295.214 59.1562 294.694 60.0895 293.944 60.8906C293.202 61.6832 292.269 62.3011 291.144 62.7443C290.028 63.179 288.754 63.3963 287.322 63.3963ZM299.988 63V43.3636H303.682V46.483H303.887C304.245 45.4261 304.875 44.5952 305.779 43.9901C306.691 43.3764 307.722 43.0696 308.873 43.0696C309.111 43.0696 309.392 43.0781 309.716 43.0952C310.049 43.1122 310.309 43.1335 310.496 43.1591V46.8153C310.343 46.7727 310.07 46.7259 309.678 46.6747C309.286 46.6151 308.894 46.5852 308.502 46.5852C307.598 46.5852 306.793 46.777 306.086 47.1605C305.387 47.5355 304.833 48.0597 304.424 48.733C304.015 49.3977 303.81 50.1562 303.81 51.0085V63H299.988Z" fill="white"/>
<g clip-path="url(#clip0_7_849)">
<path d="M98.802 35.1992L87.164 27.6995C87.073 27.6416 86.9726 27.6196 86.8747 27.5872V25.0006C86.8747 24.3099 86.3157 23.7505 85.6246 23.7505H80.9831L71.2877 17.6908C70.8826 17.4368 70.3675 17.4368 69.962 17.6908L60.2667 23.7505H54.375C53.6843 23.7505 53.1249 24.3095 53.1249 25.0006V27.5865C53.027 27.6189 52.9263 27.6412 52.8356 27.6995L41.1976 35.1992C40.8411 35.4298 40.6249 35.8256 40.6249 36.2501V68.7498C40.6249 69.4406 41.1839 70 41.875 70H98.1246C98.8153 70 99.3747 69.4409 99.3747 68.7498V36.2504C99.3747 35.8256 99.1585 35.4302 98.802 35.1992ZM70.6251 20.2252L76.2663 23.7505H64.9838L70.6251 20.2252ZM55.6251 26.2504H84.3748V54.3752C84.3748 54.3788 84.377 54.3816 84.377 54.3856L80.1484 56.9532L69.9732 51.4032C69.5936 51.1982 69.1321 51.1993 68.7551 51.4155L59.4698 56.7215L55.6233 54.386C55.6233 54.3824 55.6255 54.3795 55.6255 54.3759L55.6251 26.2504ZM43.1252 36.9315L53.1249 30.4883V52.8692L43.1252 46.7973V36.9315ZM43.1252 49.721L56.989 58.1382L43.1252 66.0607V49.721ZM45.6442 67.5004L69.3897 53.9323L94.2648 67.5004H45.6442ZM96.8748 66.0761L82.6847 58.3364L96.8748 49.7207V66.0761ZM96.8748 46.7973L86.8747 52.8689V30.4883L96.8748 36.9318V46.7973Z" fill="#175F41"/>
<path d="M60.625 38.7504H75.6249C76.3157 38.7504 76.8751 38.1913 76.8751 37.5003V30.0005C76.8751 29.3098 76.316 28.7503 75.6249 28.7503H60.625C59.9343 28.7503 59.3749 29.3094 59.3749 30.0005V37.5003C59.3749 38.1913 59.9343 38.7504 60.625 38.7504ZM61.8748 31.2503H74.3748V36.2501H61.8748V31.2503Z" fill="#175F41"/>
<path d="M79.3746 41.2503H59.3749V43.7502H79.3746V41.2503Z" fill="#175F41"/>
<path d="M79.3746 46.2505H59.3749V48.7504H79.3746V46.2505Z" fill="#175F41"/>
<path d="M93.1247 25.0006C93.4445 25.0006 93.7643 24.8787 94.0086 24.6344L98.4275 20.2155C98.9156 19.7274 98.9156 18.9363 98.4275 18.4481C97.9393 17.9595 97.1482 17.9599 96.66 18.4481L92.2411 22.8669C91.753 23.3551 91.753 24.1462 92.2411 24.6344C92.4851 24.8787 92.8049 25.0006 93.1247 25.0006Z" fill="#175F41"/>
<path d="M45.9913 24.6344C46.2356 24.8787 46.5554 25.0006 46.8752 25.0006C47.195 25.0006 47.5148 24.8787 47.7591 24.6344C48.2473 24.1462 48.2473 23.3551 47.7591 22.8669L43.3399 18.4481C42.8517 17.9599 42.0606 17.9599 41.5724 18.4481C41.0843 18.9363 41.0843 19.7274 41.5724 20.2155L45.9913 24.6344Z" fill="#175F41"/>
<path d="M82.661 18.6614C82.8124 18.7226 82.97 18.7503 83.1247 18.7503C83.6204 18.7503 84.0903 18.4535 84.2856 17.9642L86.7855 11.7142C87.042 11.0735 86.7294 10.3457 86.0887 10.0896C85.4541 9.83453 84.7202 10.1432 84.464 10.7864L81.9641 17.0364C81.7076 17.6775 82.0199 18.4053 82.661 18.6614Z" fill="#175F41"/>
<path d="M56.9641 17.9646C57.1595 18.4542 57.6293 18.7507 58.125 18.7507C58.2801 18.7507 58.4377 18.7226 58.5888 18.6615C59.2295 18.4049 59.5421 17.6775 59.2856 17.0368L56.7857 10.7868C56.5292 10.1436 55.7971 9.83455 55.161 10.09C54.5203 10.3465 54.2077 11.0739 54.4642 11.7146L56.9641 17.9646Z" fill="#175F41"/>
</g>
<defs>
<clipPath id="clip0_7_849">
<rect width="60" height="60" fill="white" transform="translate(40 10)"/>
</clipPath>
</defs>
</svg>
